<svg width="64" height="64" viewBox="0 0 64 64" fill="none" xmlns="http://www.w3.org/2000/svg">
<path d="M3.17724 28.3841C1.17536 28.2033 -0.325144 26.4093 0.102086 24.426C1.0157 20.1848 2.84859 16.1992 5.46799 12.758C6.69289 11.1488 9.01821 11.1492 10.4466 12.5771L21.3667 23.4942C23.7903 25.9171 21.8789 30.0732 18.4822 29.7664L3.17724 28.3841Z" fill="#80A96C"/>
<path d="M60.7561 28.5426C62.7594 28.3789 64.2749 26.5979 63.8643 24.611C62.9864 20.3621 61.1871 16.361 58.5967 12.8975C57.3853 11.2778 55.0601 11.2583 53.6198 12.6739L42.6083 23.4971C40.1645 25.8991 42.0409 30.0714 45.44 29.7938L60.7561 28.5426Z" fill="#80A96C"/>
<path d="M29.5555 60.548C29.494 62.5767 27.8085 64.1945 25.8229 63.8799C21.5768 63.2072 17.5296 61.5928 13.9744 59.1536C12.312 58.013 12.1761 55.6688 13.5041 54.1452L23.6566 42.497C25.9097 39.9119 30.1302 41.5954 30.0258 45.0376L29.5555 60.548Z" fill="#80A96C"/>
<path d="M13.8088 9.7572C12.4828 8.23189 12.6216 5.88782 14.2855 4.74938C17.8438 2.31485 21.8931 0.705753 26.1401 0.0386247C28.1261 -0.273341 29.8095 1.34661 29.8684 3.37542L30.3188 18.8864C30.4188 22.3287 26.1962 24.0067 23.9463 21.4187L13.8088 9.7572Z" fill="#80A96C"/>
<path d="M9.78964 49.9136C8.29254 51.2678 5.97009 51.1511 4.82621 49.4822C2.38004 45.9133 0.74629 41.8403 0.0432973 37.5584C-0.285439 35.556 1.3018 33.8399 3.31012 33.7601L18.6644 33.1504C22.072 33.0151 23.7756 37.2624 21.2354 39.5601L9.78964 49.9136Z" fill="#80A96C"/>
<path d="M34.2294 60.5846C34.2638 62.614 35.9275 64.2546 37.9171 63.9672C42.1718 63.3526 46.2403 61.7936 49.8278 59.4032C51.5054 58.2854 51.6726 55.9432 50.3651 54.4016L40.3695 42.6158C38.1512 40.0002 33.9086 41.6259 33.9669 45.0693L34.2294 60.5846Z" fill="#80A96C"/>
<path d="M54.1484 49.9561C55.6389 51.3176 57.9619 51.2123 59.1138 49.549C61.5772 45.9922 63.2305 41.9273 63.9541 37.6488C64.2925 35.6481 62.7136 33.9242 60.7056 33.8346L45.3545 33.1495C41.9476 32.9974 40.2235 37.2363 42.7526 39.5465L54.1484 49.9561Z" fill="#80A96C"/>
<path d="M49.9865 9.77098C51.3092 8.24277 51.1653 5.89902 49.4989 4.76422C45.9354 2.33749 41.8827 0.737252 37.6343 0.079422C35.6477 -0.228196 33.9677 1.39543 33.9132 3.42437L33.4961 18.9363C33.4035 22.3789 37.6297 24.0476 39.874 21.4546L49.9865 9.77098Z" fill="#80A96C"/>
<path d="M37.405 31.47C37.405 34.5146 34.961 36.9826 31.9462 36.9826C28.9314 36.9826 26.4874 34.5146 26.4874 31.47C26.4874 28.4255 28.9314 25.9574 31.9462 25.9574C34.961 25.9574 37.405 28.4255 37.405 31.47Z" fill="#FDFDFD"/>
</svg>
