<svg width="197" height="64" viewBox="0 0 197 64" fill="none" xmlns="http://www.w3.org/2000/svg">
<path d="M13.888 9C16.2773 9 18.112 9.256 19.392 9.768C20.672 10.28 21.7813 10.8347 22.72 11.432C23.232 11.7307 23.6373 11.9653 23.936 12.136C24.2773 12.264 24.5973 12.328 24.896 12.328C25.3227 12.328 25.6213 12.0933 25.792 11.624C26.0053 11.1547 26.176 10.4507 26.304 9.512H27.776C27.7333 10.3227 27.6693 11.2613 27.584 12.328C27.5413 13.3947 27.4987 14.824 27.456 16.616C27.456 18.3653 27.456 20.6907 27.456 23.592H25.984C25.856 21.416 25.3653 19.3253 24.512 17.32C23.7013 15.3147 22.528 13.672 20.992 12.392C19.4987 11.0693 17.5787 10.408 15.232 10.408C13.1413 10.408 11.392 11.0267 9.984 12.264C8.61867 13.5013 7.936 15.1653 7.936 17.256C7.936 19.048 8.384 20.5627 9.28 21.8C10.176 22.9947 11.4347 24.168 13.056 25.32C14.72 26.4293 16.6827 27.7093 18.944 29.16C21.0347 30.5253 22.912 31.8907 24.576 33.256C26.24 34.5787 27.5413 36.0507 28.48 37.672C29.4613 39.2933 29.952 41.2773 29.952 43.624C29.952 46.3973 29.2693 48.7013 27.904 50.536C26.5387 52.3707 24.704 53.736 22.4 54.632C20.096 55.528 17.5787 55.976 14.848 55.976C12.3307 55.976 10.3253 55.72 8.832 55.208C7.38133 54.696 6.12267 54.1627 5.056 53.608C4.11733 53.0107 3.392 52.712 2.88 52.712C2.45333 52.712 2.13333 52.9467 1.92 53.416C1.74933 53.8853 1.6 54.5893 1.472 55.528H0C0.0853333 54.5467 0.128 53.3947 0.128 52.072C0.170667 50.7493 0.192 49.0427 0.192 46.952C0.234667 44.8187 0.256 42.1307 0.256 38.888H1.728C1.89867 41.6187 2.368 44.1787 3.136 46.568C3.94667 48.9147 5.16267 50.8133 6.784 52.264C8.448 53.7147 10.6453 54.44 13.376 54.44C14.8693 54.44 16.2133 54.184 17.408 53.672C18.6453 53.1173 19.6267 52.2853 20.352 51.176C21.0773 50.024 21.44 48.5733 21.44 46.824C21.44 45.0747 21.0347 43.5387 20.224 42.216C19.4133 40.8933 18.2827 39.656 16.832 38.504C15.3813 37.352 13.6747 36.1787 11.712 34.984C9.70667 33.704 7.82933 32.4027 6.08 31.08C4.33067 29.7573 2.92267 28.264 1.856 26.6C0.832 24.8933 0.32 22.8453 0.32 20.456C0.32 17.8107 0.96 15.656 2.24 13.992C3.52 12.2853 5.184 11.0267 7.232 10.216C9.32267 9.40533 11.5413 9 13.888 9Z" fill="#FDFDFD"/>
<path d="M46.7565 9.576L62.3085 49.704C62.9485 51.24 63.6312 52.3067 64.3565 52.904C65.1245 53.4587 65.8285 53.7573 66.4685 53.8V55.08C65.3592 54.9947 64.0152 54.952 62.4365 54.952C60.9005 54.9093 59.3218 54.888 57.7005 54.888C55.8232 54.888 54.0738 54.9093 52.4525 54.952C50.8312 54.952 49.5085 54.9947 48.4845 55.08V53.8C50.6605 53.7147 52.0472 53.352 52.6445 52.712C53.2418 52.0293 53.1138 50.6 52.2605 48.424L40.9965 18.024L42.1485 16.616L31.9085 43.176C31.0978 45.3093 30.6072 47.0587 30.4365 48.424C30.2658 49.7893 30.3725 50.856 30.7565 51.624C31.1405 52.392 31.7805 52.9467 32.6765 53.288C33.5725 53.5867 34.6818 53.7573 36.0045 53.8V55.08C34.6392 54.9947 33.3165 54.952 32.0365 54.952C30.7565 54.9093 29.4765 54.888 28.1965 54.888C27.2578 54.888 26.3618 54.9093 25.5085 54.952C24.6978 54.952 23.9725 54.9947 23.3325 55.08V53.8C24.2712 53.5867 25.1885 53.032 26.0845 52.136C27.0232 51.24 27.9192 49.6827 28.7725 47.464L43.4285 9.576C43.9405 9.61867 44.4952 9.64 45.0925 9.64C45.6898 9.64 46.2445 9.61867 46.7565 9.576ZM52.3245 36.648V37.928H33.2525L33.8925 36.648H52.3245Z" fill="#FDFDFD"/>
<path d="M59.156 9.768C60.2227 9.81067 61.588 9.85333 63.252 9.896C64.916 9.93867 66.58 9.96 68.244 9.96C70.3347 9.96 72.3187 9.93867 74.196 9.896C76.0733 9.85333 77.396 9.832 78.164 9.832C83.1987 9.832 86.9533 10.7707 89.428 12.648C91.9453 14.5253 93.204 16.936 93.204 19.88C93.204 21.3733 92.7987 22.8667 91.988 24.36C91.22 25.8533 89.9613 27.1973 88.212 28.392C86.5053 29.5867 84.2653 30.4827 81.492 31.08V31.208C85.2467 31.5493 88.212 32.3173 90.388 33.512C92.6067 34.664 94.1853 36.0507 95.124 37.672C96.0627 39.2507 96.532 40.9147 96.532 42.664C96.532 45.2667 95.8493 47.5067 94.484 49.384C93.1613 51.2187 91.2413 52.6267 88.724 53.608C86.2067 54.5893 83.1773 55.08 79.636 55.08C78.6973 55.08 77.268 55.0587 75.348 55.016C73.428 54.9307 71.1027 54.888 68.372 54.888C66.6227 54.888 64.916 54.9093 63.252 54.952C61.588 54.952 60.2227 54.9947 59.156 55.08V53.8C60.564 53.7147 61.6093 53.544 62.292 53.288C63.0173 53.032 63.4867 52.52 63.7 51.752C63.956 50.984 64.084 49.832 64.084 48.296V16.552C64.084 14.9733 63.956 13.8213 63.7 13.096C63.4867 12.328 63.0173 11.816 62.292 11.56C61.6093 11.2613 60.564 11.0907 59.156 11.048V9.768ZM77.076 11.048C75.3267 11.048 74.1747 11.4107 73.62 12.136C73.108 12.8613 72.852 14.3333 72.852 16.552V48.296C72.852 49.7893 72.98 50.92 73.236 51.688C73.492 52.456 73.94 52.968 74.58 53.224C75.22 53.48 76.1587 53.608 77.396 53.608C80.8947 53.608 83.412 52.648 84.948 50.728C86.5267 48.7653 87.316 45.992 87.316 42.408C87.316 39.1227 86.4627 36.584 84.756 34.792C83.092 33 80.3187 32.104 76.436 32.104H70.612C70.612 32.104 70.612 31.9333 70.612 31.592C70.612 31.208 70.612 31.016 70.612 31.016H76.116C78.292 31.016 79.9773 30.5467 81.172 29.608C82.3667 28.6267 83.1773 27.3467 83.604 25.768C84.0307 24.1467 84.244 22.4187 84.244 20.584C84.244 17.4267 83.6893 15.0587 82.58 13.48C81.4707 11.8587 79.636 11.048 77.076 11.048Z" fill="#FDFDFD"/>
<path d="M154.532 9C155.599 9.04267 156.964 9.08533 158.628 9.128C160.292 9.17066 161.956 9.192 163.62 9.192C165.711 9.192 167.695 9.17066 169.572 9.128C171.449 9.08533 172.772 9.064 173.54 9.064C177.38 9.064 180.537 9.53333 183.012 10.472C185.529 11.368 187.407 12.648 188.644 14.312C189.881 15.976 190.5 17.9387 190.5 20.2C190.5 21.608 190.223 23.0587 189.668 24.552C189.113 26.0027 188.153 27.3467 186.788 28.584C185.423 29.8213 183.545 30.8453 181.156 31.656C178.809 32.424 175.801 32.808 172.132 32.808H165.988V31.528H171.492C174.18 31.528 176.228 31.0587 177.636 30.12C179.087 29.1387 180.047 27.8587 180.516 26.28C181.028 24.6587 181.284 22.8667 181.284 20.904C181.284 17.5333 180.623 14.9307 179.3 13.096C177.977 11.2187 175.695 10.28 172.452 10.28C170.703 10.28 169.551 10.6427 168.996 11.368C168.484 12.0933 168.228 13.5653 168.228 15.784V47.528C168.228 49.064 168.356 50.216 168.612 50.984C168.868 51.752 169.337 52.264 170.02 52.52C170.745 52.776 171.791 52.9467 173.156 53.032V54.312C172.089 54.2267 170.724 54.184 169.06 54.184C167.396 54.1413 165.711 54.12 164.004 54.12C162.084 54.12 160.292 54.1413 158.628 54.184C156.964 54.184 155.599 54.2267 154.532 54.312V53.032C155.94 52.9467 156.985 52.776 157.668 52.52C158.393 52.264 158.863 51.752 159.076 50.984C159.332 50.216 159.46 49.064 159.46 47.528V15.784C159.46 14.2053 159.332 13.0533 159.076 12.328C158.863 11.56 158.393 11.048 157.668 10.792C156.985 10.4933 155.94 10.3227 154.532 10.28V9ZM165.988 31.72C167.993 31.8053 169.657 31.912 170.98 32.04C172.345 32.1253 173.497 32.2107 174.436 32.296C175.417 32.3813 176.292 32.488 177.06 32.616C180.601 32.9573 183.204 33.7893 184.868 35.112C186.575 36.392 187.705 38.3547 188.26 41L189.732 47.592C190.116 49.3413 190.521 50.6 190.948 51.368C191.417 52.0933 192.079 52.4347 192.932 52.392C193.529 52.392 194.041 52.2427 194.468 51.944C194.895 51.6027 195.321 51.1547 195.748 50.6L196.644 51.368C195.577 52.6907 194.447 53.672 193.252 54.312C192.057 54.9093 190.543 55.208 188.708 55.208C186.66 55.208 184.932 54.7387 183.524 53.8C182.116 52.8187 181.156 50.984 180.644 48.296L179.428 41.896C179.087 40.104 178.681 38.5253 178.212 37.16C177.785 35.7947 177.188 34.728 176.42 33.96C175.652 33.192 174.521 32.808 173.028 32.808H166.116L165.988 31.72Z" fill="#FDFDFD"/>
<circle cx="127.532" cy="32" r="32" fill="#387819"/>
<circle cx="127.532" cy="32" r="26.5" fill="#80A96C" stroke="#FDFDFD" stroke-width="3"/>
<line x1="127.032" y1="6" x2="127.032" y2="58" stroke="#FDFDFD" stroke-width="3"/>
<line x1="100.532" y1="32.5" x2="152.532" y2="32.5" stroke="#FDFDFD" stroke-width="3"/>
<line x1="108.593" y1="13.9393" x2="145.362" y2="50.7089" stroke="#FDFDFD" stroke-width="3"/>
<line x1="109.471" y1="50.7089" x2="146.241" y2="13.9393" stroke="#FDFDFD" stroke-width="3"/>
</svg>
