<svg width="173" height="52" viewBox="0 0 173 52" fill="none" xmlns="http://www.w3.org/2000/svg">
<path d="M14.532 5C16.9213 5 18.756 5.256 20.036 5.768C21.316 6.28 22.4253 6.83467 23.364 7.432C23.876 7.73067 24.2813 7.96533 24.58 8.136C24.9213 8.264 25.2413 8.328 25.54 8.328C25.9666 8.328 26.2653 8.09333 26.436 7.624C26.6493 7.15467 26.82 6.45067 26.948 5.512H28.42C28.3773 6.32267 28.3133 7.26133 28.228 8.328C28.1853 9.39467 28.1426 10.824 28.1 12.616C28.1 14.3653 28.1 16.6907 28.1 19.592H26.628C26.5 17.416 26.0093 15.3253 25.156 13.32C24.3453 11.3147 23.172 9.672 21.636 8.392C20.1426 7.06933 18.2226 6.408 15.876 6.408C13.7853 6.408 12.036 7.02667 10.628 8.264C9.26265 9.50133 8.57998 11.1653 8.57998 13.256C8.57998 15.048 9.02798 16.5627 9.92398 17.8C10.82 18.9947 12.0786 20.168 13.7 21.32C15.364 22.4293 17.3266 23.7093 19.588 25.16C21.6786 26.5253 23.556 27.8907 25.22 29.256C26.884 30.5787 28.1853 32.0507 29.124 33.672C30.1053 35.2933 30.596 37.2773 30.596 39.624C30.596 42.3973 29.9133 44.7013 28.548 46.536C27.1826 48.3707 25.348 49.736 23.044 50.632C20.74 51.528 18.2226 51.976 15.492 51.976C12.9746 51.976 10.9693 51.72 9.47598 51.208C8.02532 50.696 6.76665 50.1627 5.69998 49.608C4.76132 49.0107 4.03598 48.712 3.52398 48.712C3.09732 48.712 2.77732 48.9467 2.56398 49.416C2.39332 49.8853 2.24398 50.5893 2.11598 51.528H0.643982C0.729315 50.5467 0.771982 49.3947 0.771982 48.072C0.814649 46.7493 0.835982 45.0427 0.835982 42.952C0.878649 40.8187 0.899982 38.1307 0.899982 34.888H2.37198C2.54265 37.6187 3.01198 40.1787 3.77998 42.568C4.59065 44.9147 5.80665 46.8133 7.42798 48.264C9.09198 49.7147 11.2893 50.44 14.02 50.44C15.5133 50.44 16.8573 50.184 18.052 49.672C19.2893 49.1173 20.2706 48.2853 20.996 47.176C21.7213 46.024 22.084 44.5733 22.084 42.824C22.084 41.0747 21.6786 39.5387 20.868 38.216C20.0573 36.8933 18.9266 35.656 17.476 34.504C16.0253 33.352 14.3186 32.1787 12.356 30.984C10.3506 29.704 8.47332 28.4027 6.72398 27.08C4.97465 25.7573 3.56665 24.264 2.49998 22.6C1.47598 20.8933 0.963982 18.8453 0.963982 16.456C0.963982 13.8107 1.60398 11.656 2.88398 9.992C4.16398 8.28533 5.82798 7.02667 7.87598 6.216C9.96665 5.40533 12.1853 5 14.532 5Z" fill="#FDFDFD"/>
<path d="M47.4005 5.576L62.9525 45.704C63.5925 47.24 64.2751 48.3067 65.0005 48.904C65.7685 49.4587 66.4725 49.7573 67.1125 49.8V51.08C66.0031 50.9947 64.6592 50.952 63.0805 50.952C61.5445 50.9093 59.9658 50.888 58.3445 50.888C56.4672 50.888 54.7178 50.9093 53.0965 50.952C51.4752 50.952 50.1525 50.9947 49.1285 51.08V49.8C51.3045 49.7147 52.6911 49.352 53.2885 48.712C53.8858 48.0293 53.7578 46.6 52.9045 44.424L41.6405 14.024L42.7925 12.616L32.5525 39.176C31.7418 41.3093 31.2511 43.0587 31.0805 44.424C30.9098 45.7893 31.0165 46.856 31.4005 47.624C31.7845 48.392 32.4245 48.9467 33.3205 49.288C34.2165 49.5867 35.3258 49.7573 36.6485 49.8V51.08C35.2832 50.9947 33.9605 50.952 32.6805 50.952C31.4005 50.9093 30.1205 50.888 28.8405 50.888C27.9018 50.888 27.0058 50.9093 26.1525 50.952C25.3418 50.952 24.6165 50.9947 23.9765 51.08V49.8C24.9151 49.5867 25.8325 49.032 26.7285 48.136C27.6671 47.24 28.5631 45.6827 29.4165 43.464L44.0725 5.576C44.5845 5.61867 45.1392 5.64 45.7365 5.64C46.3338 5.64 46.8885 5.61867 47.4005 5.576ZM52.9685 32.648V33.928H33.8965L34.5365 32.648H52.9685Z" fill="#FDFDFD"/>
<path d="M59.8 5.768C60.8666 5.81067 62.232 5.85333 63.896 5.896C65.56 5.93867 67.224 5.96 68.888 5.96C70.9787 5.96 72.9626 5.93867 74.84 5.896C76.7173 5.85333 78.04 5.832 78.808 5.832C83.8427 5.832 87.5973 6.77067 90.072 8.648C92.5893 10.5253 93.848 12.936 93.848 15.88C93.848 17.3733 93.4426 18.8667 92.632 20.36C91.864 21.8533 90.6053 23.1973 88.856 24.392C87.1493 25.5867 84.9093 26.4827 82.136 27.08V27.208C85.8907 27.5493 88.856 28.3173 91.032 29.512C93.2506 30.664 94.8293 32.0507 95.768 33.672C96.7066 35.2507 97.176 36.9147 97.176 38.664C97.176 41.2667 96.4933 43.5067 95.128 45.384C93.8053 47.2187 91.8853 48.6267 89.368 49.608C86.8506 50.5893 83.8213 51.08 80.28 51.08C79.3413 51.08 77.912 51.0587 75.992 51.016C74.072 50.9307 71.7467 50.888 69.016 50.888C67.2667 50.888 65.56 50.9093 63.896 50.952C62.232 50.952 60.8666 50.9947 59.8 51.08V49.8C61.208 49.7147 62.2533 49.544 62.936 49.288C63.6613 49.032 64.1306 48.52 64.344 47.752C64.6 46.984 64.728 45.832 64.728 44.296V12.552C64.728 10.9733 64.6 9.82133 64.344 9.096C64.1306 8.328 63.6613 7.816 62.936 7.56C62.2533 7.26133 61.208 7.09067 59.8 7.048V5.768ZM77.72 7.048C75.9707 7.048 74.8187 7.41067 74.264 8.136C73.752 8.86133 73.496 10.3333 73.496 12.552V44.296C73.496 45.7893 73.624 46.92 73.88 47.688C74.136 48.456 74.584 48.968 75.224 49.224C75.864 49.48 76.8027 49.608 78.04 49.608C81.5387 49.608 84.056 48.648 85.592 46.728C87.1706 44.7653 87.96 41.992 87.96 38.408C87.96 35.1227 87.1067 32.584 85.4 30.792C83.736 29 80.9627 28.104 77.08 28.104H71.256C71.256 28.104 71.256 27.9333 71.256 27.592C71.256 27.208 71.256 27.016 71.256 27.016H76.76C78.936 27.016 80.6213 26.5467 81.816 25.608C83.0107 24.6267 83.8213 23.3467 84.248 21.768C84.6747 20.1467 84.888 18.4187 84.888 16.584C84.888 13.4267 84.3333 11.0587 83.224 9.48C82.1147 7.85867 80.28 7.048 77.72 7.048Z" fill="#FDFDFD"/>
<path d="M130.176 5C131.243 5.04267 132.608 5.08533 134.272 5.128C135.936 5.17066 137.6 5.192 139.264 5.192C141.355 5.192 143.339 5.17066 145.216 5.128C147.093 5.08533 148.416 5.064 149.184 5.064C153.024 5.064 156.181 5.53333 158.656 6.472C161.173 7.368 163.051 8.648 164.288 10.312C165.525 11.976 166.144 13.9387 166.144 16.2C166.144 17.608 165.867 19.0587 165.312 20.552C164.757 22.0027 163.797 23.3467 162.432 24.584C161.067 25.8213 159.189 26.8453 156.8 27.656C154.453 28.424 151.445 28.808 147.776 28.808H141.632V27.528H147.136C149.824 27.528 151.872 27.0587 153.28 26.12C154.731 25.1387 155.691 23.8587 156.16 22.28C156.672 20.6587 156.928 18.8667 156.928 16.904C156.928 13.5333 156.267 10.9307 154.944 9.096C153.621 7.21866 151.339 6.28 148.096 6.28C146.347 6.28 145.195 6.64267 144.64 7.368C144.128 8.09333 143.872 9.56533 143.872 11.784V43.528C143.872 45.064 144 46.216 144.256 46.984C144.512 47.752 144.981 48.264 145.664 48.52C146.389 48.776 147.435 48.9467 148.8 49.032V50.312C147.733 50.2267 146.368 50.184 144.704 50.184C143.04 50.1413 141.355 50.12 139.648 50.12C137.728 50.12 135.936 50.1413 134.272 50.184C132.608 50.184 131.243 50.2267 130.176 50.312V49.032C131.584 48.9467 132.629 48.776 133.312 48.52C134.037 48.264 134.507 47.752 134.72 46.984C134.976 46.216 135.104 45.064 135.104 43.528V11.784C135.104 10.2053 134.976 9.05333 134.72 8.328C134.507 7.56 134.037 7.048 133.312 6.792C132.629 6.49333 131.584 6.32266 130.176 6.28V5ZM141.632 27.72C143.637 27.8053 145.301 27.912 146.624 28.04C147.989 28.1253 149.141 28.2107 150.08 28.296C151.061 28.3813 151.936 28.488 152.704 28.616C156.245 28.9573 158.848 29.7893 160.512 31.112C162.219 32.392 163.349 34.3547 163.904 37L165.376 43.592C165.76 45.3413 166.165 46.6 166.592 47.368C167.061 48.0933 167.723 48.4347 168.576 48.392C169.173 48.392 169.685 48.2427 170.112 47.944C170.539 47.6027 170.965 47.1547 171.392 46.6L172.288 47.368C171.221 48.6907 170.091 49.672 168.896 50.312C167.701 50.9093 166.187 51.208 164.352 51.208C162.304 51.208 160.576 50.7387 159.168 49.8C157.76 48.8187 156.8 46.984 156.288 44.296L155.072 37.896C154.731 36.104 154.325 34.5253 153.856 33.16C153.429 31.7947 152.832 30.728 152.064 29.96C151.296 29.192 150.165 28.808 148.672 28.808H141.76L141.632 27.72Z" fill="#FDFDFD"/>
<path d="M88.6557 19.8946C88.6393 19.8455 88.6407 19.7948 88.6564 19.7494C88.6704 19.7035 88.699 19.6617 88.7411 19.6316C91.4032 17.7306 95.9971 15.9762 100.308 16.4422C102.47 16.6759 104.566 17.4688 106.306 19.087C107.801 20.4772 109.02 22.4654 109.797 25.2026C109.763 25.1885 109.728 25.1757 109.693 25.1641L101.961 22.6518C101.249 22.4206 100.485 22.8101 100.253 23.5218C100.022 24.2335 100.412 24.9979 101.123 25.2292L108.855 27.7415C108.889 27.7524 108.923 27.762 108.957 27.7701C106.722 29.5238 104.57 30.4137 102.546 30.6596C100.187 30.9461 98.0252 30.3555 96.1391 29.274C92.3773 27.1169 89.692 22.9973 88.6557 19.8946Z" fill="#5C9042"/>
<path d="M98.7623 50.3379C98.7106 50.3383 98.6628 50.3213 98.6244 50.2924C98.5851 50.2649 98.5541 50.2247 98.5386 50.1754C97.5532 47.0562 97.3043 42.1449 99.0798 38.1886C99.97 36.2051 101.372 34.4565 103.448 33.3019C105.233 32.31 107.5 31.7646 110.343 31.8718C110.32 31.8996 110.297 31.9286 110.275 31.9588L105.496 38.5361C105.056 39.1416 105.19 39.9889 105.796 40.4288C106.401 40.8687 107.249 40.7345 107.688 40.129L112.467 33.5517C112.488 33.5231 112.507 33.494 112.526 33.4643C113.503 36.1312 113.684 38.4533 113.293 40.4542C112.836 42.7859 111.606 44.6595 109.995 46.1191C106.781 49.0303 102.033 50.3111 98.7623 50.3379Z" fill="#5C9042"/>
<path d="M130.639 50.2927C130.69 50.2932 130.738 50.2762 130.776 50.2472C130.816 50.2197 130.847 50.1795 130.862 50.1302C131.848 47.011 132.097 42.0997 130.321 38.1435C129.431 36.1599 128.029 34.4113 125.952 33.2567C124.168 32.2649 121.901 31.7194 119.057 31.8266C119.081 31.8544 119.104 31.8834 119.126 31.9136L123.905 38.491C124.345 39.0964 124.211 39.9438 123.605 40.3836C123 40.8235 122.152 40.6893 121.712 40.0839L116.934 33.5065C116.913 33.4779 116.893 33.4488 116.875 33.4192C115.898 36.086 115.717 38.4082 116.108 40.409C116.565 42.7407 117.794 44.6143 119.406 46.0739C122.62 48.9851 127.368 50.266 130.639 50.2927Z" fill="#5C9042"/>
<path d="M140.632 19.8946C140.649 19.8455 140.647 19.7948 140.632 19.7494C140.618 19.7035 140.589 19.6617 140.547 19.6316C137.885 17.7306 133.291 15.9762 128.98 16.4422C126.818 16.6759 124.722 17.4688 122.982 19.087C121.487 20.4772 120.268 22.4654 119.491 25.2026C119.525 25.1885 119.56 25.1757 119.595 25.1641L127.327 22.6518C128.039 22.4206 128.803 22.8101 129.035 23.5218C129.266 24.2335 128.876 24.9979 128.165 25.2292L120.433 27.7415C120.399 27.7524 120.365 27.762 120.331 27.7701C122.566 29.5238 124.718 30.4137 126.742 30.6596C129.101 30.9461 131.263 30.3555 133.149 29.274C136.911 27.1169 139.596 22.9973 140.632 19.8946Z" fill="#5C9042"/>
<path d="M114.778 0.944263C114.737 0.913517 114.688 0.89917 114.64 0.900064C114.592 0.89917 114.543 0.913517 114.502 0.944263C111.871 2.88859 108.783 6.71554 107.894 10.9598C107.448 13.0878 107.554 15.3265 108.556 17.4811C109.416 19.3322 110.93 21.1065 113.293 22.6909C113.29 22.6544 113.289 22.6174 113.289 22.5801V14.4501C113.289 13.7017 113.896 13.0951 114.644 13.0951C115.392 13.0951 115.999 13.7017 115.999 14.4501V22.5801C115.999 22.6155 115.998 22.6505 115.995 22.6852C118.353 21.1022 119.865 19.33 120.724 17.4811C121.725 15.3265 121.832 13.0878 121.386 10.9598C120.497 6.71554 117.409 2.88859 114.778 0.944263Z" fill="#5C9042"/>
<path d="M117.58 28.226C117.58 29.8474 116.265 31.1618 114.644 31.1618C113.023 31.1618 111.708 29.8474 111.708 28.226C111.708 26.6046 113.023 25.2901 114.644 25.2901C116.265 25.2901 117.58 26.6046 117.58 28.226Z" fill="#FDFDFD"/>
</svg>
