<svg width="186" height="64" viewBox="0 0 186 64" fill="none" xmlns="http://www.w3.org/2000/svg">
<path d="M14.532 9C16.9213 9 18.756 9.256 20.036 9.768C21.316 10.28 22.4253 10.8347 23.364 11.432C23.876 11.7307 24.2813 11.9653 24.58 12.136C24.9213 12.264 25.2413 12.328 25.54 12.328C25.9666 12.328 26.2653 12.0933 26.436 11.624C26.6493 11.1547 26.82 10.4507 26.948 9.512H28.42C28.3773 10.3227 28.3133 11.2613 28.228 12.328C28.1853 13.3947 28.1426 14.824 28.1 16.616C28.1 18.3653 28.1 20.6907 28.1 23.592H26.628C26.5 21.416 26.0093 19.3253 25.156 17.32C24.3453 15.3147 23.172 13.672 21.636 12.392C20.1426 11.0693 18.2226 10.408 15.876 10.408C13.7853 10.408 12.036 11.0267 10.628 12.264C9.26265 13.5013 8.57998 15.1653 8.57998 17.256C8.57998 19.048 9.02798 20.5627 9.92398 21.8C10.82 22.9947 12.0786 24.168 13.7 25.32C15.364 26.4293 17.3266 27.7093 19.588 29.16C21.6786 30.5253 23.556 31.8907 25.22 33.256C26.884 34.5787 28.1853 36.0507 29.124 37.672C30.1053 39.2933 30.596 41.2773 30.596 43.624C30.596 46.3973 29.9133 48.7013 28.548 50.536C27.1826 52.3707 25.348 53.736 23.044 54.632C20.74 55.528 18.2226 55.976 15.492 55.976C12.9746 55.976 10.9693 55.72 9.47598 55.208C8.02532 54.696 6.76665 54.1627 5.69998 53.608C4.76132 53.0107 4.03598 52.712 3.52398 52.712C3.09732 52.712 2.77732 52.9467 2.56398 53.416C2.39332 53.8853 2.24398 54.5893 2.11598 55.528H0.643982C0.729315 54.5467 0.771982 53.3947 0.771982 52.072C0.814649 50.7493 0.835982 49.0427 0.835982 46.952C0.878649 44.8187 0.899982 42.1307 0.899982 38.888H2.37198C2.54265 41.6187 3.01198 44.1787 3.77998 46.568C4.59065 48.9147 5.80665 50.8133 7.42798 52.264C9.09198 53.7147 11.2893 54.44 14.02 54.44C15.5133 54.44 16.8573 54.184 18.052 53.672C19.2893 53.1173 20.2706 52.2853 20.996 51.176C21.7213 50.024 22.084 48.5733 22.084 46.824C22.084 45.0747 21.6786 43.5387 20.868 42.216C20.0573 40.8933 18.9266 39.656 17.476 38.504C16.0253 37.352 14.3186 36.1787 12.356 34.984C10.3506 33.704 8.47332 32.4027 6.72398 31.08C4.97465 29.7573 3.56665 28.264 2.49998 26.6C1.47598 24.8933 0.963982 22.8453 0.963982 20.456C0.963982 17.8107 1.60398 15.656 2.88398 13.992C4.16398 12.2853 5.82798 11.0267 7.87598 10.216C9.96665 9.40533 12.1853 9 14.532 9Z" fill="#FDFDFD"/>
<path d="M47.4005 9.576L62.9525 49.704C63.5925 51.24 64.2751 52.3067 65.0005 52.904C65.7685 53.4587 66.4725 53.7573 67.1125 53.8V55.08C66.0031 54.9947 64.6592 54.952 63.0805 54.952C61.5445 54.9093 59.9658 54.888 58.3445 54.888C56.4672 54.888 54.7178 54.9093 53.0965 54.952C51.4752 54.952 50.1525 54.9947 49.1285 55.08V53.8C51.3045 53.7147 52.6911 53.352 53.2885 52.712C53.8858 52.0293 53.7578 50.6 52.9045 48.424L41.6405 18.024L42.7925 16.616L32.5525 43.176C31.7418 45.3093 31.2511 47.0587 31.0805 48.424C30.9098 49.7893 31.0165 50.856 31.4005 51.624C31.7845 52.392 32.4245 52.9467 33.3205 53.288C34.2165 53.5867 35.3258 53.7573 36.6485 53.8V55.08C35.2832 54.9947 33.9605 54.952 32.6805 54.952C31.4005 54.9093 30.1205 54.888 28.8405 54.888C27.9018 54.888 27.0058 54.9093 26.1525 54.952C25.3418 54.952 24.6165 54.9947 23.9765 55.08V53.8C24.9151 53.5867 25.8325 53.032 26.7285 52.136C27.6671 51.24 28.5631 49.6827 29.4165 47.464L44.0725 9.576C44.5845 9.61867 45.1392 9.64 45.7365 9.64C46.3338 9.64 46.8885 9.61867 47.4005 9.576ZM52.9685 36.648V37.928H33.8965L34.5365 36.648H52.9685Z" fill="#FDFDFD"/>
<path d="M59.8 9.768C60.8666 9.81067 62.232 9.85333 63.896 9.896C65.56 9.93867 67.224 9.96 68.888 9.96C70.9787 9.96 72.9626 9.93867 74.84 9.896C76.7173 9.85333 78.04 9.832 78.808 9.832C83.8427 9.832 87.5973 10.7707 90.072 12.648C92.5893 14.5253 93.848 16.936 93.848 19.88C93.848 21.3733 93.4426 22.8667 92.632 24.36C91.864 25.8533 90.6053 27.1973 88.856 28.392C87.1493 29.5867 84.9093 30.4827 82.136 31.08V31.208C85.8907 31.5493 88.856 32.3173 91.032 33.512C93.2506 34.664 94.8293 36.0507 95.768 37.672C96.7066 39.2507 97.176 40.9147 97.176 42.664C97.176 45.2667 96.4933 47.5067 95.128 49.384C93.8053 51.2187 91.8853 52.6267 89.368 53.608C86.8506 54.5893 83.8213 55.08 80.28 55.08C79.3413 55.08 77.912 55.0587 75.992 55.016C74.072 54.9307 71.7467 54.888 69.016 54.888C67.2667 54.888 65.56 54.9093 63.896 54.952C62.232 54.952 60.8666 54.9947 59.8 55.08V53.8C61.208 53.7147 62.2533 53.544 62.936 53.288C63.6613 53.032 64.1306 52.52 64.344 51.752C64.6 50.984 64.728 49.832 64.728 48.296V16.552C64.728 14.9733 64.6 13.8213 64.344 13.096C64.1306 12.328 63.6613 11.816 62.936 11.56C62.2533 11.2613 61.208 11.0907 59.8 11.048V9.768ZM77.72 11.048C75.9707 11.048 74.8187 11.4107 74.264 12.136C73.752 12.8613 73.496 14.3333 73.496 16.552V48.296C73.496 49.7893 73.624 50.92 73.88 51.688C74.136 52.456 74.584 52.968 75.224 53.224C75.864 53.48 76.8027 53.608 78.04 53.608C81.5387 53.608 84.056 52.648 85.592 50.728C87.1706 48.7653 87.96 45.992 87.96 42.408C87.96 39.1227 87.1067 36.584 85.4 34.792C83.736 33 80.9627 32.104 77.08 32.104H71.256C71.256 32.104 71.256 31.9333 71.256 31.592C71.256 31.208 71.256 31.016 71.256 31.016H76.76C78.936 31.016 80.6213 30.5467 81.816 29.608C83.0107 28.6267 83.8213 27.3467 84.248 25.768C84.6747 24.1467 84.888 22.4187 84.888 20.584C84.888 17.4267 84.3333 15.0587 83.224 13.48C82.1147 11.8587 80.28 11.048 77.72 11.048Z" fill="#FDFDFD"/>
<path d="M143.176 9C144.243 9.04267 145.608 9.08533 147.272 9.128C148.936 9.17066 150.6 9.192 152.264 9.192C154.355 9.192 156.339 9.17066 158.216 9.128C160.093 9.08533 161.416 9.064 162.184 9.064C166.024 9.064 169.181 9.53333 171.656 10.472C174.173 11.368 176.051 12.648 177.288 14.312C178.525 15.976 179.144 17.9387 179.144 20.2C179.144 21.608 178.867 23.0587 178.312 24.552C177.757 26.0027 176.797 27.3467 175.432 28.584C174.067 29.8213 172.189 30.8453 169.8 31.656C167.453 32.424 164.445 32.808 160.776 32.808H154.632V31.528H160.136C162.824 31.528 164.872 31.0587 166.28 30.12C167.731 29.1387 168.691 27.8587 169.16 26.28C169.672 24.6587 169.928 22.8667 169.928 20.904C169.928 17.5333 169.267 14.9307 167.944 13.096C166.621 11.2187 164.339 10.28 161.096 10.28C159.347 10.28 158.195 10.6427 157.64 11.368C157.128 12.0933 156.872 13.5653 156.872 15.784V47.528C156.872 49.064 157 50.216 157.256 50.984C157.512 51.752 157.981 52.264 158.664 52.52C159.389 52.776 160.435 52.9467 161.8 53.032V54.312C160.733 54.2267 159.368 54.184 157.704 54.184C156.04 54.1413 154.355 54.12 152.648 54.12C150.728 54.12 148.936 54.1413 147.272 54.184C145.608 54.184 144.243 54.2267 143.176 54.312V53.032C144.584 52.9467 145.629 52.776 146.312 52.52C147.037 52.264 147.507 51.752 147.72 50.984C147.976 50.216 148.104 49.064 148.104 47.528V15.784C148.104 14.2053 147.976 13.0533 147.72 12.328C147.507 11.56 147.037 11.048 146.312 10.792C145.629 10.4933 144.584 10.3227 143.176 10.28V9ZM154.632 31.72C156.637 31.8053 158.301 31.912 159.624 32.04C160.989 32.1253 162.141 32.2107 163.08 32.296C164.061 32.3813 164.936 32.488 165.704 32.616C169.245 32.9573 171.848 33.7893 173.512 35.112C175.219 36.392 176.349 38.3547 176.904 41L178.376 47.592C178.76 49.3413 179.165 50.6 179.592 51.368C180.061 52.0933 180.723 52.4347 181.576 52.392C182.173 52.392 182.685 52.2427 183.112 51.944C183.539 51.6027 183.965 51.1547 184.392 50.6L185.288 51.368C184.221 52.6907 183.091 53.672 181.896 54.312C180.701 54.9093 179.187 55.208 177.352 55.208C175.304 55.208 173.576 54.7387 172.168 53.8C170.76 52.8187 169.8 50.984 169.288 48.296L168.072 41.896C167.731 40.104 167.325 38.5253 166.856 37.16C166.429 35.7947 165.832 34.728 165.064 33.96C164.296 33.192 163.165 32.808 161.672 32.808H154.76L154.632 31.72Z" fill="#FDFDFD"/>
<path d="M92.8212 28.3841C90.8193 28.2033 89.3188 26.4093 89.7461 24.426C90.6597 20.1848 92.4926 16.1992 95.112 12.758C96.3369 11.1488 98.6622 11.1492 100.091 12.5771L111.011 23.4942C113.434 25.9171 111.523 30.0732 108.126 29.7664L92.8212 28.3841Z" fill="#80A96C"/>
<path d="M150.4 28.5426C152.403 28.3789 153.919 26.5979 153.508 24.611C152.63 20.3621 150.831 16.361 148.241 12.8975C147.029 11.2778 144.704 11.2583 143.264 12.6739L132.252 23.4971C129.808 25.8991 131.685 30.0714 135.084 29.7938L150.4 28.5426Z" fill="#80A96C"/>
<path d="M119.2 60.548C119.138 62.5767 117.453 64.1945 115.467 63.8799C111.221 63.2072 107.174 61.5928 103.618 59.1536C101.956 58.013 101.82 55.6688 103.148 54.1452L113.301 42.497C115.554 39.9119 119.774 41.5954 119.67 45.0376L119.2 60.548Z" fill="#80A96C"/>
<path d="M103.453 9.7572C102.127 8.23189 102.266 5.88782 103.93 4.74938C107.488 2.31485 111.537 0.705753 115.784 0.0386247C117.77 -0.273341 119.453 1.34661 119.512 3.37542L119.963 18.8864C120.063 22.3287 115.84 24.0067 113.59 21.4187L103.453 9.7572Z" fill="#80A96C"/>
<path d="M99.4336 49.9136C97.9365 51.2678 95.6141 51.1511 94.4702 49.4822C92.024 45.9133 90.3903 41.8403 89.6873 37.5584C89.3585 35.556 90.9458 33.8399 92.9541 33.7601L108.308 33.1504C111.716 33.0151 113.42 37.2624 110.879 39.5601L99.4336 49.9136Z" fill="#80A96C"/>
<path d="M123.873 60.5846C123.908 62.614 125.571 64.2546 127.561 63.9672C131.816 63.3526 135.884 61.7936 139.472 59.4032C141.149 58.2854 141.317 55.9432 140.009 54.4016L130.014 42.6158C127.795 40.0002 123.553 41.6259 123.611 45.0693L123.873 60.5846Z" fill="#80A96C"/>
<path d="M143.792 49.9561C145.283 51.3176 147.606 51.2123 148.758 49.549C151.221 45.9922 152.875 41.9273 153.598 37.6488C153.936 35.6481 152.358 33.9242 150.35 33.8346L134.999 33.1495C131.592 32.9974 129.867 37.2363 132.397 39.5465L143.792 49.9561Z" fill="#80A96C"/>
<path d="M139.63 9.77098C140.953 8.24277 140.809 5.89902 139.143 4.76422C135.579 2.33749 131.527 0.737252 127.278 0.079422C125.292 -0.228196 123.612 1.39543 123.557 3.42437L123.14 18.9363C123.047 22.3789 127.274 24.0476 129.518 21.4546L139.63 9.77098Z" fill="#80A96C"/>
<path d="M127.049 31.47C127.049 34.5146 124.605 36.9826 121.59 36.9826C118.575 36.9826 116.131 34.5146 116.131 31.47C116.131 28.4255 118.575 25.9574 121.59 25.9574C124.605 25.9574 127.049 28.4255 127.049 31.47Z" fill="#FDFDFD"/>
</svg>
