<svg width="64" height="64" viewBox="0 0 64 64" fill="none" xmlns="http://www.w3.org/2000/svg">
<path d="M0.0143916 24.9546C-0.0057768 24.8942 -0.00406004 24.8318 0.0152442 24.776C0.0324571 24.7194 0.0677598 24.6679 0.11957 24.6309C3.39595 22.2912 9.05004 20.1319 14.3562 20.7055C17.0166 20.9931 19.5966 21.969 21.7378 23.9606C23.5774 25.6717 25.0783 28.1187 26.0342 31.4875C25.9926 31.4702 25.9499 31.4544 25.9062 31.4402L16.3898 28.3481C15.5138 28.0635 14.573 28.5428 14.2883 29.4188C14.0037 30.2948 14.4831 31.2356 15.3591 31.5202L24.8755 34.6123C24.9169 34.6258 24.9584 34.6375 25 34.6476C22.2501 36.806 19.6009 37.9011 17.11 38.2038C14.207 38.5565 11.5462 37.8295 9.2248 36.4984C4.59484 33.8436 1.28981 28.7733 0.0143916 24.9546Z" fill="#467746"/>
<path d="M12.4533 62.4233C12.3896 62.4238 12.3308 62.4029 12.2837 62.3673C12.2352 62.3334 12.1971 62.2839 12.1779 62.2232C10.9652 58.3842 10.6588 52.3396 12.844 47.4704C13.9397 45.029 15.665 42.8769 18.2209 41.4559C20.4166 40.2351 23.2077 39.5638 26.7071 39.6957C26.6777 39.73 26.6494 39.7657 26.6225 39.8028L20.741 47.898C20.1996 48.6432 20.3648 49.6861 21.1099 50.2275C21.855 50.7688 22.898 50.6037 23.4394 49.8585L29.3208 41.7633C29.3464 41.7281 29.3704 41.6923 29.3929 41.6558C30.5958 44.9381 30.8187 47.7961 30.3368 50.2587C29.7752 53.1285 28.2616 55.4345 26.2783 57.2309C22.3227 60.8139 16.4792 62.3903 12.4533 62.4233Z" fill="#467746"/>
<path d="M51.6857 62.3677C51.7493 62.3682 51.8082 62.3473 51.8553 62.3117C51.9038 62.2778 51.9419 62.2283 51.961 62.1676C53.1737 58.3286 53.4802 52.284 51.2949 47.4148C50.1993 44.9734 48.474 42.8213 45.9181 41.4003C43.7223 40.1795 40.9312 39.5082 37.4319 39.6401C37.4613 39.6744 37.4895 39.7101 37.5165 39.7472L43.398 47.8424C43.9394 48.5876 43.7742 49.6305 43.0291 50.1719C42.2839 50.7133 41.241 50.5481 40.6996 49.8029L34.8181 41.7077C34.7926 41.6725 34.7686 41.6367 34.7461 41.6002C33.5431 44.8825 33.3202 47.7405 33.8021 50.2031C34.3638 53.0729 35.8774 55.3789 37.8607 57.1753C41.8163 60.7583 47.6598 62.3347 51.6857 62.3677Z" fill="#467746"/>
<path d="M63.9856 24.9546C64.0058 24.8942 64.0041 24.8318 63.9848 24.776C63.9675 24.7194 63.9322 24.6679 63.8804 24.6309C60.6041 22.2912 54.95 20.1319 49.6438 20.7055C46.9834 20.9931 44.4034 21.969 42.2622 23.9606C40.4226 25.6717 38.9217 28.1187 37.9658 31.4875C38.0074 31.4702 38.0501 31.4544 38.0938 31.4402L47.6102 28.3481C48.4862 28.0635 49.427 28.5428 49.7117 29.4188C49.9963 30.2948 49.5169 31.2356 48.6409 31.5202L39.1245 34.6123C39.0831 34.6258 39.0416 34.6375 39 34.6476C41.7499 36.806 44.3991 37.9011 46.8901 38.2038C49.793 38.5565 52.4539 37.8295 54.7752 36.4984C59.4052 33.8436 62.7102 28.7733 63.9856 24.9546Z" fill="#467746"/>
<path d="M32.1652 1.63111C32.114 1.59327 32.0541 1.57561 31.995 1.57671C31.9359 1.57561 31.876 1.59327 31.8248 1.63111C28.5872 4.02413 24.7863 8.73422 23.6922 13.958C23.1436 16.577 23.2744 19.3323 24.5069 21.9842C25.5658 24.2624 27.4292 26.4461 30.3378 28.3962C30.3342 28.3513 30.3323 28.3058 30.3323 28.2599V18.2537C30.3323 17.3326 31.079 16.586 32 16.586C32.921 16.586 33.6677 17.3326 33.6677 18.2537V28.2599C33.6677 28.3034 33.666 28.3465 33.6628 28.3892C36.5653 26.4408 38.4255 24.2597 39.4831 21.9842C40.7156 19.3323 40.8464 16.577 40.2978 13.958C39.2037 8.73422 35.4028 4.02413 32.1652 1.63111Z" fill="#467746"/>
<path d="M35.6134 35.2086C35.6134 37.2042 33.9956 38.822 32 38.822C30.0044 38.822 28.3867 37.2042 28.3867 35.2086C28.3867 33.213 30.0044 31.5953 32 31.5953C33.9956 31.5953 35.6134 33.213 35.6134 35.2086Z" fill="#62545C"/>
</svg>
