<svg width="235" height="72" viewBox="0 0 235 72" fill="none" xmlns="http://www.w3.org/2000/svg">
<path d="M19.2089 8C22.4642 8 24.9637 8.34877 26.7076 9.04632C28.4515 9.74387 29.9628 10.4995 31.2416 11.3134C31.9392 11.7203 32.4914 12.04 32.8983 12.2725C33.3633 12.4469 33.7993 12.5341 34.2062 12.5341C34.7875 12.5341 35.1944 12.2143 35.4269 11.5749C35.7176 10.9355 35.9501 9.97638 36.1245 8.69755H38.1299C38.0718 9.802 37.9846 11.0808 37.8683 12.5341C37.8102 13.9873 37.7521 15.9346 37.694 18.376C37.694 20.7593 37.694 23.9273 37.694 27.8801H35.6885C35.5141 24.9155 34.8456 22.0672 33.6831 19.3351C32.5786 16.6031 30.9801 14.3651 28.8874 12.6213C26.8529 10.8193 24.2371 9.91826 21.04 9.91826C18.1917 9.91826 15.8084 10.7611 13.8901 12.4469C12.03 14.1326 11.1 16.3996 11.1 19.248C11.1 21.6894 11.7103 23.753 12.931 25.4387C14.1517 27.0663 15.8665 28.6649 18.0754 30.2343C20.3425 31.7457 23.0164 33.4896 26.0972 35.4659C28.9455 37.3261 31.5032 39.1862 33.7703 41.0463C36.0373 42.8483 37.8102 44.8538 39.0891 47.0627C40.426 49.2716 41.0945 51.9746 41.0945 55.1717C41.0945 58.95 40.1644 62.089 38.3043 64.5886C36.4442 67.0881 33.9446 68.9482 30.8057 70.1689C27.6667 71.3896 24.2371 72 20.5168 72C17.0872 72 14.3552 71.6512 12.3207 70.9537C10.3443 70.2561 8.62947 69.5295 7.17625 68.7738C5.89741 67.96 4.90922 67.5531 4.21167 67.5531C3.63038 67.5531 3.19441 67.8728 2.90377 68.5123C2.67125 69.1517 2.4678 70.1108 2.29341 71.3896H0.287964C0.404222 70.0527 0.462351 68.4832 0.462351 66.6812C0.52048 64.8792 0.549544 62.554 0.549544 59.7057C0.607673 56.7993 0.636738 53.1371 0.636738 48.7193H2.64219C2.8747 52.4396 3.51412 55.9273 4.56044 59.1826C5.66489 62.3797 7.32157 64.9664 9.53047 66.9428C11.7975 68.9192 14.7911 69.9074 18.5114 69.9074C20.5459 69.9074 22.377 69.5586 24.0046 68.861C25.6903 68.1054 27.0273 66.9718 28.0155 65.4605C29.0037 63.891 29.4978 61.9146 29.4978 59.5313C29.4978 57.148 28.9455 55.0554 27.8411 53.2534C26.7366 51.4514 25.1962 49.7657 23.2198 48.1962C21.2435 46.6267 18.9183 45.0282 16.2444 43.4005C13.5123 41.6567 10.9546 39.8837 8.57134 38.0817C6.18806 36.2797 4.2698 34.2452 2.81657 31.9782C1.42148 29.653 0.723931 26.8629 0.723931 23.6076C0.723931 20.0036 1.59587 17.0681 3.33974 14.8011C5.0836 12.4759 7.35063 10.7611 10.1408 9.65668C12.9891 8.55223 16.0119 8 19.2089 8Z" fill="#5c5057"/>
<path d="M63.9889 8.78474L85.1769 63.455C86.0489 65.5477 86.9789 67.0009 87.9671 67.8147C89.0134 68.5704 89.9726 68.9773 90.8445 69.0354V70.7793C89.3331 70.663 87.5021 70.6049 85.3513 70.6049C83.2587 70.5468 81.1079 70.5177 78.899 70.5177C76.3413 70.5177 73.958 70.5468 71.7491 70.6049C69.5402 70.6049 67.7382 70.663 66.3431 70.7793V69.0354C69.3077 68.9192 71.1969 68.4251 72.0107 67.5531C72.8245 66.6231 72.6501 64.6758 71.4876 61.7112L56.1415 20.2943L57.711 18.376L43.76 54.5613C42.6556 57.4678 41.9871 59.851 41.7546 61.7112C41.5221 63.5713 41.6674 65.0245 42.1906 66.0708C42.7137 67.1172 43.5856 67.8728 44.8064 68.3379C46.0271 68.7448 47.5384 68.9773 49.3404 69.0354V70.7793C47.4803 70.663 45.6783 70.6049 43.9344 70.6049C42.1906 70.5468 40.4467 70.5177 38.7028 70.5177C37.424 70.5177 36.2033 70.5468 35.0407 70.6049C33.9362 70.6049 32.948 70.663 32.0761 70.7793V69.0354C33.3549 68.7448 34.6047 67.9891 35.8254 66.7684C37.1043 65.5477 38.325 63.426 39.4876 60.4033L59.4549 8.78474C60.1524 8.84287 60.9081 8.87193 61.7219 8.87193C62.5357 8.87193 63.2914 8.84287 63.9889 8.78474ZM71.5747 45.6676V47.4114H45.5911L46.463 45.6676H71.5747Z" fill="#5c5057"/>
<path d="M80.882 9.04632C82.3352 9.10445 84.1953 9.16258 86.4623 9.22071C88.7294 9.27884 90.9964 9.3079 93.2634 9.3079C96.1118 9.3079 98.8148 9.27884 101.372 9.22071C103.93 9.16258 105.732 9.13352 106.778 9.13352C113.638 9.13352 118.753 10.4124 122.124 12.97C125.554 15.5277 127.269 18.812 127.269 22.8229C127.269 24.8574 126.717 26.8919 125.612 28.9264C124.566 30.9609 122.851 32.792 120.468 34.4196C118.143 36.0472 115.091 37.2679 111.312 38.0817V38.2561C116.428 38.7212 120.468 39.7675 123.432 41.3951C126.455 42.9646 128.606 44.8538 129.885 47.0627C131.164 49.2134 131.803 51.4805 131.803 53.8638C131.803 57.4096 130.873 60.4614 129.013 63.0191C127.211 65.5186 124.595 67.4369 121.165 68.7738C117.736 70.1108 113.609 70.7793 108.784 70.7793C107.505 70.7793 105.558 70.7502 102.942 70.6921C100.326 70.5758 97.1581 70.5177 93.4378 70.5177C91.0545 70.5177 88.7294 70.5468 86.4623 70.6049C84.1953 70.6049 82.3352 70.663 80.882 70.7793V69.0354C82.8002 68.9192 84.2244 68.6866 85.1544 68.3379C86.1426 67.9891 86.7821 67.2916 87.0727 66.2452C87.4215 65.1989 87.5959 63.6294 87.5959 61.5368V18.2888C87.5959 16.1381 87.4215 14.5686 87.0727 13.5804C86.7821 12.5341 86.1426 11.8365 85.1544 11.4877C84.2244 11.0808 82.8002 10.8483 80.882 10.7902V9.04632ZM105.296 10.7902C102.913 10.7902 101.343 11.2843 100.588 12.2725C99.8901 13.2607 99.5414 15.2661 99.5414 18.2888V61.5368C99.5414 63.5713 99.7158 65.1117 100.065 66.158C100.413 67.2044 101.024 67.9019 101.896 68.2507C102.768 68.5995 104.046 68.7738 105.732 68.7738C110.499 68.7738 113.928 67.4659 116.021 64.8501C118.172 62.1762 119.247 58.3978 119.247 53.515C119.247 49.0391 118.085 45.5804 115.759 43.139C113.492 40.6975 109.714 39.4768 104.424 39.4768H96.4896C96.4896 39.4768 96.4896 39.2443 96.4896 38.7793C96.4896 38.2561 96.4896 37.9946 96.4896 37.9946H103.988C106.953 37.9946 109.249 37.3551 110.877 36.0763C112.504 34.7393 113.609 32.9955 114.19 30.8447C114.771 28.6358 115.062 26.2816 115.062 23.782C115.062 19.4805 114.306 16.2543 112.795 14.1035C111.283 11.8946 108.784 10.7902 105.296 10.7902Z" fill="#5c5057"/>
<path d="M176.762 8C178.215 8.05813 180.075 8.11626 182.342 8.17438C184.609 8.23251 186.877 8.26158 189.144 8.26158C191.992 8.26158 194.695 8.23251 197.253 8.17438C199.81 8.11626 201.612 8.08719 202.659 8.08719C207.89 8.08719 212.192 8.72661 215.563 10.0054C218.993 11.2262 221.55 12.97 223.236 15.2371C224.922 17.5041 225.765 20.178 225.765 23.2589C225.765 25.1771 225.387 27.1535 224.631 29.188C223.876 31.1644 222.568 32.9955 220.708 34.6812C218.847 36.3669 216.29 37.762 213.035 38.8665C209.837 39.9128 205.739 40.436 200.74 40.436H192.37V38.6921H199.868C203.53 38.6921 206.321 38.0527 208.239 36.7738C210.215 35.4369 211.523 33.693 212.163 31.5422C212.86 29.3333 213.209 26.8919 213.209 24.218C213.209 19.6258 212.308 16.0799 210.506 13.5804C208.704 11.0227 205.594 9.74387 201.176 9.74387C198.793 9.74387 197.223 10.238 196.468 11.2262C195.77 12.2143 195.421 14.2198 195.421 17.2425V60.4905C195.421 62.5831 195.596 64.1526 195.945 65.1989C196.293 66.2452 196.933 66.9428 197.863 67.2916C198.851 67.6403 200.275 67.8728 202.135 67.9891V69.733C200.682 69.6167 198.822 69.5586 196.555 69.5586C194.288 69.5005 191.992 69.4714 189.667 69.4714C187.051 69.4714 184.609 69.5005 182.342 69.5586C180.075 69.5586 178.215 69.6167 176.762 69.733V67.9891C178.68 67.8728 180.105 67.6403 181.035 67.2916C182.023 66.9428 182.662 66.2452 182.953 65.1989C183.302 64.1526 183.476 62.5831 183.476 60.4905V17.2425C183.476 15.0917 183.302 13.5222 182.953 12.5341C182.662 11.4877 182.023 10.7902 181.035 10.4414C180.105 10.0345 178.68 9.802 176.762 9.74387V8ZM192.37 38.9537C195.102 39.0699 197.369 39.2153 199.171 39.3896C201.031 39.5059 202.6 39.6222 203.879 39.7384C205.216 39.8547 206.408 40 207.454 40.1744C212.279 40.6394 215.825 41.7729 218.092 43.5749C220.417 45.3188 221.957 47.9927 222.713 51.5967L224.718 60.5777C225.242 62.9609 225.794 64.6757 226.375 65.7221C227.015 66.7103 227.916 67.1753 229.078 67.1172C229.892 67.1172 230.59 66.9137 231.171 66.5068C231.752 66.0418 232.333 65.4314 232.915 64.6757L234.135 65.7221C232.682 67.5241 231.142 68.861 229.514 69.733C227.887 70.5468 225.823 70.9537 223.323 70.9537C220.533 70.9537 218.179 70.3143 216.261 69.0354C214.342 67.6985 213.035 65.1989 212.337 61.5368L210.68 52.8174C210.215 50.376 209.663 48.2252 209.024 46.3651C208.442 44.505 207.629 43.0518 206.582 42.0054C205.536 40.9591 203.996 40.436 201.961 40.436H192.544L192.37 38.9537Z" fill="#5c5057"/>
<path d="M120.195 28.3235C120.173 28.2567 120.174 28.1876 120.196 28.1257C120.215 28.0631 120.254 28.0061 120.311 27.9652C123.938 25.3753 130.197 22.985 136.071 23.62C139.015 23.9383 141.871 25.0185 144.242 27.2232C146.278 29.1173 147.939 31.826 148.997 35.5551C148.951 35.5359 148.904 35.5184 148.856 35.5027L138.322 32.0799C137.352 31.7648 136.31 32.2955 135.995 33.2651C135.68 34.2348 136.211 35.2762 137.181 35.5913L147.715 39.0141C147.761 39.029 147.807 39.042 147.853 39.0531C144.809 41.4423 141.876 42.6546 139.119 42.9896C135.905 43.3801 132.96 42.5753 130.39 41.1019C125.265 38.1631 121.607 32.5505 120.195 28.3235Z" fill="#467746"/>
<path d="M133.964 69.7994C133.894 69.8 133.829 69.7768 133.776 69.7374C133.723 69.6999 133.681 69.6451 133.659 69.5779C132.317 65.3283 131.978 58.6372 134.397 53.2473C135.609 50.5448 137.519 48.1625 140.349 46.5896C142.779 45.2382 145.869 44.4951 149.742 44.6412C149.71 44.6791 149.679 44.7186 149.649 44.7597L143.138 53.7207C142.539 54.5455 142.722 55.7 143.547 56.2992C144.371 56.8985 145.526 56.7157 146.125 55.8908L152.636 46.9299C152.664 46.8909 152.69 46.8512 152.715 46.8109C154.047 50.4442 154.294 53.6078 153.76 56.3338C153.139 59.5106 151.463 62.0631 149.268 64.0517C144.889 68.0178 138.421 69.7629 133.964 69.7994Z" fill="#467746"/>
<path d="M177.392 69.7378C177.463 69.7384 177.528 69.7153 177.58 69.6758C177.634 69.6384 177.676 69.5836 177.697 69.5164C179.04 65.2668 179.379 58.5757 176.96 53.1857C175.747 50.4833 173.837 48.101 171.008 46.528C168.577 45.1767 165.488 44.4336 161.614 44.5796C161.647 44.6175 161.678 44.6571 161.708 44.6982L168.218 53.6591C168.818 54.484 168.635 55.6384 167.81 56.2377C166.985 56.837 165.831 56.6541 165.231 55.8293L158.721 46.8683C158.693 46.8294 158.666 46.7897 158.641 46.7493C157.309 50.3827 157.063 53.5463 157.596 56.2722C158.218 59.449 159.893 62.0016 162.089 63.9901C166.467 67.9563 172.936 69.7013 177.392 69.7378Z" fill="#467746"/>
<path d="M191.008 28.3235C191.03 28.2567 191.028 28.1876 191.007 28.1257C190.988 28.0631 190.949 28.0061 190.891 27.9652C187.265 25.3753 181.006 22.985 175.132 23.62C172.187 23.9383 169.331 25.0185 166.961 27.2232C164.925 29.1173 163.263 31.826 162.205 35.5551C162.251 35.5359 162.298 35.5184 162.347 35.5027L172.881 32.0799C173.851 31.7648 174.892 32.2955 175.207 33.2651C175.522 34.2348 174.992 35.2762 174.022 35.5913L163.488 39.0141C163.442 39.029 163.396 39.042 163.35 39.0531C166.394 41.4423 169.326 42.6546 172.084 42.9896C175.297 43.3801 178.243 42.5753 180.812 41.1019C185.937 38.1631 189.596 32.5505 191.008 28.3235Z" fill="#467746"/>
<path d="M155.784 2.50558C155.727 2.46369 155.661 2.44415 155.596 2.44537C155.53 2.44415 155.464 2.46369 155.407 2.50558C151.824 5.15453 147.616 10.3684 146.405 16.1508C145.798 19.0499 145.943 22.0999 147.307 25.0354C148.479 27.5573 150.542 29.9745 153.761 32.1332C153.757 32.0834 153.755 32.0331 153.755 31.9822V20.9059C153.755 19.8863 154.582 19.0598 155.601 19.0598C156.621 19.0598 157.447 19.8863 157.447 20.9059V31.9822C157.447 32.0304 157.446 32.0781 157.442 32.1254C160.655 29.9687 162.714 27.5542 163.885 25.0354C165.249 22.0999 165.394 19.0499 164.787 16.1508C163.575 10.3684 159.368 5.15453 155.784 2.50558Z" fill="#467746"/>
<path d="M159.601 39.6741C159.601 41.8832 157.81 43.6739 155.601 43.6739C153.392 43.6739 151.602 41.8832 151.602 39.6741C151.602 37.4651 153.392 35.6744 155.601 35.6744C157.81 35.6744 159.601 37.4651 159.601 39.6741Z" fill="#5c5057"/>
</svg>
