<svg width="234" height="72" viewBox="0 0 234 72" fill="none" xmlns="http://www.w3.org/2000/svg">
<path d="M19.0564 8C22.3116 8 24.8111 8.34877 26.555 9.04632C28.2989 9.74387 29.8102 10.4995 31.0891 11.3134C31.7866 11.7203 32.3388 12.04 32.7457 12.2725C33.2108 12.4469 33.6467 12.5341 34.0536 12.5341C34.6349 12.5341 35.0418 12.2143 35.2743 11.5749C35.565 10.9355 35.7975 9.97638 35.9719 8.69755H37.9773C37.9192 9.802 37.832 11.0808 37.7158 12.5341C37.6576 13.9873 37.5995 15.9346 37.5414 18.376C37.5414 20.7593 37.5414 23.9273 37.5414 27.8801H35.5359C35.3615 24.9155 34.6931 22.0672 33.5305 19.3351C32.426 16.6031 30.8275 14.3651 28.7348 12.6213C26.7003 10.8193 24.0845 9.91826 20.8874 9.91826C18.0391 9.91826 15.6558 10.7611 13.7376 12.4469C11.8774 14.1326 10.9474 16.3996 10.9474 19.248C10.9474 21.6894 11.5577 23.753 12.7784 25.4387C13.9991 27.0663 15.7139 28.6649 17.9228 30.2343C20.1899 31.7457 22.8638 33.4896 25.9446 35.4659C28.793 37.3261 31.3506 39.1862 33.6177 41.0463C35.8847 42.8483 37.6576 44.8538 38.9365 47.0627C40.2734 49.2716 40.9419 51.9746 40.9419 55.1717C40.9419 58.95 40.0119 62.089 38.1517 64.5886C36.2916 67.0881 33.7921 68.9482 30.6531 70.1689C27.5141 71.3896 24.0845 72 20.3643 72C16.9346 72 14.2026 71.6512 12.1681 70.9537C10.1917 70.2561 8.47688 69.5295 7.02366 68.7738C5.74482 67.96 4.75663 67.5531 4.05908 67.5531C3.47779 67.5531 3.04182 67.8728 2.75118 68.5123C2.51866 69.1517 2.31521 70.1108 2.14083 71.3896H0.135376C0.251634 70.0527 0.309763 68.4832 0.309763 66.6812C0.367892 64.8792 0.396956 62.554 0.396956 59.7057C0.455085 56.7993 0.48415 53.1371 0.48415 48.7193H2.4896C2.72212 52.4396 3.36153 55.9273 4.40786 59.1826C5.51231 62.3797 7.16898 64.9664 9.37788 66.9428C11.6449 68.9192 14.6386 69.9074 18.3588 69.9074C20.3933 69.9074 22.2244 69.5586 23.852 68.861C25.5377 68.1054 26.8747 66.9718 27.8629 65.4605C28.8511 63.891 29.3452 61.9146 29.3452 59.5313C29.3452 57.148 28.793 55.0554 27.6885 53.2534C26.5841 51.4514 25.0436 49.7657 23.0673 48.1962C21.0909 46.6267 18.7657 45.0282 16.0918 43.4005C13.3597 41.6567 10.802 39.8837 8.41876 38.0817C6.03547 36.2797 4.11721 34.2452 2.66399 31.9782C1.26889 29.653 0.571343 26.8629 0.571343 23.6076C0.571343 20.0036 1.44328 17.0681 3.18715 14.8011C4.93102 12.4759 7.19805 10.7611 9.98824 9.65668C12.8366 8.55223 15.8593 8 19.0564 8Z" fill="#FEFEFE"/>
<path d="M63.8363 8.78474L85.0243 63.455C85.8963 65.5477 86.8263 67.0009 87.8145 67.8147C88.8608 68.5704 89.82 68.9773 90.6919 69.0354V70.7793C89.1806 70.663 87.3495 70.6049 85.1987 70.6049C83.1061 70.5468 80.9553 70.5177 78.7464 70.5177C76.1887 70.5177 73.8055 70.5468 71.5966 70.6049C69.3876 70.6049 67.5856 70.663 66.1906 70.7793V69.0354C69.1551 68.9192 71.0443 68.4251 71.8581 67.5531C72.6719 66.6231 72.4975 64.6758 71.335 61.7112L55.9889 20.2943L57.5584 18.376L43.6074 54.5613C42.503 57.4678 41.8345 59.851 41.602 61.7112C41.3695 63.5713 41.5148 65.0245 42.038 66.0708C42.5611 67.1172 43.4331 67.8728 44.6538 68.3379C45.8745 68.7448 47.3858 68.9773 49.1878 69.0354V70.7793C47.3277 70.663 45.5257 70.6049 43.7818 70.6049C42.038 70.5468 40.2941 70.5177 38.5502 70.5177C37.2714 70.5177 36.0507 70.5468 34.8881 70.6049C33.7836 70.6049 32.7955 70.663 31.9235 70.7793V69.0354C33.2024 68.7448 34.4521 67.9891 35.6728 66.7684C36.9517 65.5477 38.1724 63.426 39.335 60.4033L59.3023 8.78474C59.9998 8.84287 60.7555 8.87193 61.5693 8.87193C62.3831 8.87193 63.1388 8.84287 63.8363 8.78474ZM71.4222 45.6676V47.4114H45.4385L46.3104 45.6676H71.4222Z" fill="#FEFEFE"/>
<path d="M80.7294 9.04632C82.1826 9.10445 84.0427 9.16258 86.3098 9.22071C88.5768 9.27884 90.8438 9.3079 93.1109 9.3079C95.9592 9.3079 98.6622 9.27884 101.22 9.22071C103.778 9.16258 105.58 9.13352 106.626 9.13352C113.485 9.13352 118.6 10.4124 121.972 12.97C125.401 15.5277 127.116 18.812 127.116 22.8229C127.116 24.8574 126.564 26.8919 125.46 28.9264C124.413 30.9609 122.698 32.792 120.315 34.4196C117.99 36.0472 114.938 37.2679 111.16 38.0817V38.2561C116.275 38.7212 120.315 39.7675 123.28 41.3951C126.302 42.9646 128.453 44.8538 129.732 47.0627C131.011 49.2134 131.65 51.4805 131.65 53.8638C131.65 57.4096 130.72 60.4614 128.86 63.0191C127.058 65.5186 124.442 67.4369 121.013 68.7738C117.583 70.1108 113.456 70.7793 108.631 70.7793C107.352 70.7793 105.405 70.7502 102.789 70.6921C100.174 70.5758 97.0055 70.5177 93.2852 70.5177C90.902 70.5177 88.5768 70.5468 86.3098 70.6049C84.0427 70.6049 82.1826 70.663 80.7294 70.7793V69.0354C82.6476 68.9192 84.0718 68.6866 85.0019 68.3379C85.9901 67.9891 86.6295 67.2916 86.9201 66.2452C87.2689 65.1989 87.4433 63.6294 87.4433 61.5368V18.2888C87.4433 16.1381 87.2689 14.5686 86.9201 13.5804C86.6295 12.5341 85.9901 11.8365 85.0019 11.4877C84.0718 11.0808 82.6476 10.8483 80.7294 10.7902V9.04632ZM105.144 10.7902C102.76 10.7902 101.191 11.2843 100.435 12.2725C99.7376 13.2607 99.3888 15.2661 99.3888 18.2888V61.5368C99.3888 63.5713 99.5632 65.1117 99.9119 66.158C100.261 67.2044 100.871 67.9019 101.743 68.2507C102.615 68.5995 103.894 68.7738 105.58 68.7738C110.346 68.7738 113.776 67.4659 115.868 64.8501C118.019 62.1762 119.095 58.3978 119.095 53.515C119.095 49.0391 117.932 45.5804 115.607 43.139C113.34 40.6975 109.561 39.4768 104.272 39.4768H96.337C96.337 39.4768 96.337 39.2443 96.337 38.7793C96.337 38.2561 96.337 37.9946 96.337 37.9946H103.836C106.8 37.9946 109.096 37.3551 110.724 36.0763C112.352 34.7393 113.456 32.9955 114.037 30.8447C114.619 28.6358 114.909 26.2816 114.909 23.782C114.909 19.4805 114.154 16.2543 112.642 14.1035C111.131 11.8946 108.631 10.7902 105.144 10.7902Z" fill="#FEFEFE"/>
<path d="M176.609 8C178.063 8.05813 179.923 8.11626 182.19 8.17438C184.457 8.23251 186.724 8.26158 188.991 8.26158C191.839 8.26158 194.542 8.23251 197.1 8.17438C199.658 8.11626 201.46 8.08719 202.506 8.08719C207.738 8.08719 212.039 8.72661 215.411 10.0054C218.84 11.2262 221.398 12.97 223.084 15.2371C224.769 17.5041 225.612 20.178 225.612 23.2589C225.612 25.1771 225.234 27.1535 224.479 29.188C223.723 31.1644 222.415 32.9955 220.555 34.6812C218.695 36.3669 216.137 37.762 212.882 38.8665C209.685 39.9128 205.587 40.436 200.588 40.436H192.217V38.6921H199.716C203.378 38.6921 206.168 38.0527 208.086 36.7738C210.063 35.4369 211.371 33.693 212.01 31.5422C212.708 29.3333 213.056 26.8919 213.056 24.218C213.056 19.6258 212.155 16.0799 210.353 13.5804C208.551 11.0227 205.441 9.74387 201.024 9.74387C198.64 9.74387 197.071 10.238 196.315 11.2262C195.618 12.2143 195.269 14.2198 195.269 17.2425V60.4905C195.269 62.5831 195.443 64.1526 195.792 65.1989C196.141 66.2452 196.78 66.9428 197.71 67.2916C198.699 67.6403 200.123 67.8728 201.983 67.9891V69.733C200.53 69.6167 198.669 69.5586 196.402 69.5586C194.135 69.5005 191.839 69.4714 189.514 69.4714C186.898 69.4714 184.457 69.5005 182.19 69.5586C179.923 69.5586 178.063 69.6167 176.609 69.733V67.9891C178.528 67.8728 179.952 67.6403 180.882 67.2916C181.87 66.9428 182.51 66.2452 182.8 65.1989C183.149 64.1526 183.323 62.5831 183.323 60.4905V17.2425C183.323 15.0917 183.149 13.5222 182.8 12.5341C182.51 11.4877 181.87 10.7902 180.882 10.4414C179.952 10.0345 178.528 9.802 176.609 9.74387V8ZM192.217 38.9537C194.949 39.0699 197.216 39.2153 199.018 39.3896C200.878 39.5059 202.448 39.6222 203.727 39.7384C205.064 39.8547 206.255 40 207.302 40.1744C212.126 40.6394 215.672 41.7729 217.939 43.5749C220.264 45.3188 221.805 47.9927 222.56 51.5967L224.566 60.5777C225.089 62.9609 225.641 64.6757 226.223 65.7221C226.862 66.7103 227.763 67.1753 228.926 67.1172C229.739 67.1172 230.437 66.9137 231.018 66.5068C231.6 66.0418 232.181 65.4314 232.762 64.6757L233.983 65.7221C232.53 67.5241 230.989 68.861 229.362 69.733C227.734 70.5468 225.67 70.9537 223.171 70.9537C220.381 70.9537 218.026 70.3143 216.108 69.0354C214.19 67.6985 212.882 65.1989 212.184 61.5368L210.528 52.8174C210.063 50.376 209.51 48.2252 208.871 46.3651C208.29 44.505 207.476 43.0518 206.43 42.0054C205.383 40.9591 203.843 40.436 201.808 40.436H192.392L192.217 38.9537Z" fill="#FEFEFE"/>
<path d="M120.042 28.3235C120.02 28.2567 120.022 28.1876 120.043 28.1257C120.062 28.0631 120.101 28.0061 120.159 27.9652C123.786 25.3753 130.044 22.985 135.918 23.62C138.863 23.9383 141.719 25.0185 144.089 27.2232C146.125 29.1173 147.787 31.826 148.845 35.5551C148.799 35.5359 148.752 35.5184 148.703 35.5027L138.169 32.0799C137.199 31.7648 136.158 32.2955 135.843 33.2651C135.528 34.2348 136.058 35.2762 137.028 35.5913L147.562 39.0141C147.608 39.029 147.654 39.042 147.7 39.0531C144.656 41.4423 141.724 42.6546 138.966 42.9896C135.753 43.3801 132.807 42.5753 130.238 41.1019C125.113 38.1631 121.454 32.5505 120.042 28.3235Z" fill="#8AA48A"/>
<path d="M133.812 69.7994C133.741 69.8 133.676 69.7768 133.624 69.7374C133.57 69.6999 133.528 69.6451 133.507 69.5779C132.164 65.3283 131.825 58.6372 134.244 53.2473C135.457 50.5448 137.367 48.1625 140.196 46.5896C142.627 45.2382 145.716 44.4951 149.59 44.6412C149.557 44.6791 149.526 44.7186 149.496 44.7597L142.986 53.7207C142.386 54.5455 142.569 55.7 143.394 56.2992C144.219 56.8985 145.373 56.7157 145.973 55.8908L152.483 46.9299C152.511 46.8909 152.538 46.8512 152.563 46.8109C153.894 50.4442 154.141 53.6078 153.608 56.3338C152.986 59.5106 151.31 62.0631 149.115 64.0517C144.736 68.0178 138.268 69.7629 133.812 69.7994Z" fill="#8AA48A"/>
<path d="M177.24 69.7378C177.31 69.7384 177.375 69.7153 177.428 69.6758C177.481 69.6384 177.523 69.5836 177.545 69.5164C178.887 65.2668 179.226 58.5757 176.807 53.1857C175.594 50.4833 173.685 48.101 170.855 46.528C168.425 45.1767 165.335 44.4336 161.462 44.5796C161.494 44.6175 161.525 44.6571 161.555 44.6982L168.066 53.6591C168.665 54.484 168.482 55.6384 167.657 56.2377C166.832 56.837 165.678 56.6541 165.079 55.8293L158.568 46.8683C158.54 46.8294 158.513 46.7897 158.489 46.7493C157.157 50.3827 156.91 53.5463 157.444 56.2722C158.065 59.449 159.741 62.0016 161.936 63.9901C166.315 67.9563 172.783 69.7013 177.24 69.7378Z" fill="#8AA48A"/>
<path d="M190.855 28.3235C190.877 28.2567 190.876 28.1876 190.854 28.1257C190.835 28.0631 190.796 28.0061 190.739 27.9652C187.112 25.3753 180.853 22.985 174.979 23.62C172.035 23.9383 169.179 25.0185 166.808 27.2232C164.772 29.1173 163.111 31.826 162.053 35.5551C162.099 35.5359 162.146 35.5184 162.194 35.5027L172.728 32.0799C173.698 31.7648 174.74 32.2955 175.055 33.2651C175.37 34.2348 174.839 35.2762 173.869 35.5913L163.335 39.0141C163.289 39.029 163.243 39.042 163.197 39.0531C166.241 41.4423 169.174 42.6546 171.931 42.9896C175.145 43.3801 178.09 42.5753 180.66 41.1019C185.785 38.1631 189.443 32.5505 190.855 28.3235Z" fill="#8AA48A"/>
<path d="M155.632 2.50558C155.575 2.46369 155.509 2.44415 155.443 2.44537C155.378 2.44415 155.311 2.46369 155.255 2.50558C151.671 5.15453 147.464 10.3684 146.252 16.1508C145.645 19.0499 145.79 22.0999 147.154 25.0354C148.326 27.5573 150.389 29.9745 153.609 32.1332C153.605 32.0834 153.603 32.0331 153.603 31.9822V20.9059C153.603 19.8863 154.429 19.0598 155.449 19.0598C156.468 19.0598 157.295 19.8863 157.295 20.9059V31.9822C157.295 32.0304 157.293 32.0781 157.289 32.1254C160.502 29.9687 162.561 27.5542 163.732 25.0354C165.096 22.0999 165.241 19.0499 164.634 16.1508C163.423 10.3684 159.215 5.15453 155.632 2.50558Z" fill="#8AA48A"/>
<path d="M159.448 39.6741C159.448 41.8832 157.658 43.6739 155.449 43.6739C153.24 43.6739 151.449 41.8832 151.449 39.6741C151.449 37.4651 153.24 35.6744 155.449 35.6744C157.658 35.6744 159.448 37.4651 159.448 39.6741Z" fill="#FEFEFE"/>
</svg>
