<svg width="172" height="52" viewBox="0 0 172 52" fill="none" xmlns="http://www.w3.org/2000/svg">
<path d="M13.888 5C16.2773 5 18.112 5.256 19.392 5.768C20.672 6.28 21.7813 6.83467 22.72 7.432C23.232 7.73067 23.6373 7.96533 23.936 8.136C24.2773 8.264 24.5973 8.328 24.896 8.328C25.3227 8.328 25.6213 8.09333 25.792 7.624C26.0053 7.15467 26.176 6.45067 26.304 5.512H27.776C27.7333 6.32267 27.6693 7.26133 27.584 8.328C27.5413 9.39467 27.4987 10.824 27.456 12.616C27.456 14.3653 27.456 16.6907 27.456 19.592H25.984C25.856 17.416 25.3653 15.3253 24.512 13.32C23.7013 11.3147 22.528 9.672 20.992 8.392C19.4987 7.06933 17.5787 6.408 15.232 6.408C13.1413 6.408 11.392 7.02667 9.984 8.264C8.61867 9.50133 7.936 11.1653 7.936 13.256C7.936 15.048 8.384 16.5627 9.28 17.8C10.176 18.9947 11.4347 20.168 13.056 21.32C14.72 22.4293 16.6827 23.7093 18.944 25.16C21.0347 26.5253 22.912 27.8907 24.576 29.256C26.24 30.5787 27.5413 32.0507 28.48 33.672C29.4613 35.2933 29.952 37.2773 29.952 39.624C29.952 42.3973 29.2693 44.7013 27.904 46.536C26.5387 48.3707 24.704 49.736 22.4 50.632C20.096 51.528 17.5787 51.976 14.848 51.976C12.3307 51.976 10.3253 51.72 8.832 51.208C7.38133 50.696 6.12267 50.1627 5.056 49.608C4.11733 49.0107 3.392 48.712 2.88 48.712C2.45333 48.712 2.13333 48.9467 1.92 49.416C1.74933 49.8853 1.6 50.5893 1.472 51.528H0C0.0853333 50.5467 0.128 49.3947 0.128 48.072C0.170667 46.7493 0.192 45.0427 0.192 42.952C0.234667 40.8187 0.256 38.1307 0.256 34.888H1.728C1.89867 37.6187 2.368 40.1787 3.136 42.568C3.94667 44.9147 5.16267 46.8133 6.784 48.264C8.448 49.7147 10.6453 50.44 13.376 50.44C14.8693 50.44 16.2133 50.184 17.408 49.672C18.6453 49.1173 19.6267 48.2853 20.352 47.176C21.0773 46.024 21.44 44.5733 21.44 42.824C21.44 41.0747 21.0347 39.5387 20.224 38.216C19.4133 36.8933 18.2827 35.656 16.832 34.504C15.3813 33.352 13.6747 32.1787 11.712 30.984C9.70667 29.704 7.82933 28.4027 6.08 27.08C4.33067 25.7573 2.92267 24.264 1.856 22.6C0.832 20.8933 0.32 18.8453 0.32 16.456C0.32 13.8107 0.96 11.656 2.24 9.992C3.52 8.28533 5.184 7.02667 7.232 6.216C9.32267 5.40533 11.5413 5 13.888 5Z" fill="#6D5E66"/>
<path d="M46.7565 5.576L62.3085 45.704C62.9485 47.24 63.6312 48.3067 64.3565 48.904C65.1245 49.4587 65.8285 49.7573 66.4685 49.8V51.08C65.3592 50.9947 64.0152 50.952 62.4365 50.952C60.9005 50.9093 59.3218 50.888 57.7005 50.888C55.8232 50.888 54.0738 50.9093 52.4525 50.952C50.8312 50.952 49.5085 50.9947 48.4845 51.08V49.8C50.6605 49.7147 52.0472 49.352 52.6445 48.712C53.2418 48.0293 53.1138 46.6 52.2605 44.424L40.9965 14.024L42.1485 12.616L31.9085 39.176C31.0978 41.3093 30.6072 43.0587 30.4365 44.424C30.2658 45.7893 30.3725 46.856 30.7565 47.624C31.1405 48.392 31.7805 48.9467 32.6765 49.288C33.5725 49.5867 34.6818 49.7573 36.0045 49.8V51.08C34.6392 50.9947 33.3165 50.952 32.0365 50.952C30.7565 50.9093 29.4765 50.888 28.1965 50.888C27.2578 50.888 26.3618 50.9093 25.5085 50.952C24.6978 50.952 23.9725 50.9947 23.3325 51.08V49.8C24.2712 49.5867 25.1885 49.032 26.0845 48.136C27.0232 47.24 27.9192 45.6827 28.7725 43.464L43.4285 5.576C43.9405 5.61867 44.4952 5.64 45.0925 5.64C45.6898 5.64 46.2445 5.61867 46.7565 5.576ZM52.3245 32.648V33.928H33.2525L33.8925 32.648H52.3245Z" fill="#6D5E66"/>
<path d="M59.156 5.768C60.2227 5.81067 61.588 5.85333 63.252 5.896C64.916 5.93867 66.58 5.96 68.244 5.96C70.3347 5.96 72.3187 5.93867 74.196 5.896C76.0733 5.85333 77.396 5.832 78.164 5.832C83.1987 5.832 86.9533 6.77067 89.428 8.648C91.9453 10.5253 93.204 12.936 93.204 15.88C93.204 17.3733 92.7987 18.8667 91.988 20.36C91.22 21.8533 89.9613 23.1973 88.212 24.392C86.5053 25.5867 84.2653 26.4827 81.492 27.08V27.208C85.2467 27.5493 88.212 28.3173 90.388 29.512C92.6067 30.664 94.1853 32.0507 95.124 33.672C96.0627 35.2507 96.532 36.9147 96.532 38.664C96.532 41.2667 95.8493 43.5067 94.484 45.384C93.1613 47.2187 91.2413 48.6267 88.724 49.608C86.2067 50.5893 83.1773 51.08 79.636 51.08C78.6973 51.08 77.268 51.0587 75.348 51.016C73.428 50.9307 71.1027 50.888 68.372 50.888C66.6227 50.888 64.916 50.9093 63.252 50.952C61.588 50.952 60.2227 50.9947 59.156 51.08V49.8C60.564 49.7147 61.6093 49.544 62.292 49.288C63.0173 49.032 63.4867 48.52 63.7 47.752C63.956 46.984 64.084 45.832 64.084 44.296V12.552C64.084 10.9733 63.956 9.82133 63.7 9.096C63.4867 8.328 63.0173 7.816 62.292 7.56C61.6093 7.26133 60.564 7.09067 59.156 7.048V5.768ZM77.076 7.048C75.3267 7.048 74.1747 7.41067 73.62 8.136C73.108 8.86133 72.852 10.3333 72.852 12.552V44.296C72.852 45.7893 72.98 46.92 73.236 47.688C73.492 48.456 73.94 48.968 74.58 49.224C75.22 49.48 76.1587 49.608 77.396 49.608C80.8947 49.608 83.412 48.648 84.948 46.728C86.5267 44.7653 87.316 41.992 87.316 38.408C87.316 35.1227 86.4627 32.584 84.756 30.792C83.092 29 80.3187 28.104 76.436 28.104H70.612C70.612 28.104 70.612 27.9333 70.612 27.592C70.612 27.208 70.612 27.016 70.612 27.016H76.116C78.292 27.016 79.9773 26.5467 81.172 25.608C82.3667 24.6267 83.1773 23.3467 83.604 21.768C84.0307 20.1467 84.244 18.4187 84.244 16.584C84.244 13.4267 83.6893 11.0587 82.58 9.48C81.4707 7.85867 79.636 7.048 77.076 7.048Z" fill="#6D5E66"/>
<path d="M129.532 5C130.599 5.04267 131.964 5.08533 133.628 5.128C135.292 5.17066 136.956 5.192 138.62 5.192C140.711 5.192 142.695 5.17066 144.572 5.128C146.449 5.08533 147.772 5.064 148.54 5.064C152.38 5.064 155.537 5.53333 158.012 6.472C160.529 7.368 162.407 8.648 163.644 10.312C164.881 11.976 165.5 13.9387 165.5 16.2C165.5 17.608 165.223 19.0587 164.668 20.552C164.113 22.0027 163.153 23.3467 161.788 24.584C160.423 25.8213 158.545 26.8453 156.156 27.656C153.809 28.424 150.801 28.808 147.132 28.808H140.988V27.528H146.492C149.18 27.528 151.228 27.0587 152.636 26.12C154.087 25.1387 155.047 23.8587 155.516 22.28C156.028 20.6587 156.284 18.8667 156.284 16.904C156.284 13.5333 155.623 10.9307 154.3 9.096C152.977 7.21866 150.695 6.28 147.452 6.28C145.703 6.28 144.551 6.64267 143.996 7.368C143.484 8.09333 143.228 9.56533 143.228 11.784V43.528C143.228 45.064 143.356 46.216 143.612 46.984C143.868 47.752 144.337 48.264 145.02 48.52C145.745 48.776 146.791 48.9467 148.156 49.032V50.312C147.089 50.2267 145.724 50.184 144.06 50.184C142.396 50.1413 140.711 50.12 139.004 50.12C137.084 50.12 135.292 50.1413 133.628 50.184C131.964 50.184 130.599 50.2267 129.532 50.312V49.032C130.94 48.9467 131.985 48.776 132.668 48.52C133.393 48.264 133.863 47.752 134.076 46.984C134.332 46.216 134.46 45.064 134.46 43.528V11.784C134.46 10.2053 134.332 9.05333 134.076 8.328C133.863 7.56 133.393 7.048 132.668 6.792C131.985 6.49333 130.94 6.32266 129.532 6.28V5ZM140.988 27.72C142.993 27.8053 144.657 27.912 145.98 28.04C147.345 28.1253 148.497 28.2107 149.436 28.296C150.417 28.3813 151.292 28.488 152.06 28.616C155.601 28.9573 158.204 29.7893 159.868 31.112C161.575 32.392 162.705 34.3547 163.26 37L164.732 43.592C165.116 45.3413 165.521 46.6 165.948 47.368C166.417 48.0933 167.079 48.4347 167.932 48.392C168.529 48.392 169.041 48.2427 169.468 47.944C169.895 47.6027 170.321 47.1547 170.748 46.6L171.644 47.368C170.577 48.6907 169.447 49.672 168.252 50.312C167.057 50.9093 165.543 51.208 163.708 51.208C161.66 51.208 159.932 50.7387 158.524 49.8C157.116 48.8187 156.156 46.984 155.644 44.296L154.428 37.896C154.087 36.104 153.681 34.5253 153.212 33.16C152.785 31.7947 152.188 30.728 151.42 29.96C150.652 29.192 149.521 28.808 148.028 28.808H141.116L140.988 27.72Z" fill="#6D5E66"/>
<path d="M88.0117 19.8946C87.9953 19.8455 87.9967 19.7948 88.0124 19.7494C88.0264 19.7035 88.0551 19.6617 88.0972 19.6316C90.7592 17.7306 95.3532 15.9762 99.6644 16.4422C101.826 16.6759 103.922 17.4688 105.662 19.087C107.157 20.4772 108.376 22.4654 109.153 25.2026C109.119 25.1885 109.084 25.1757 109.049 25.1641L101.317 22.6518C100.605 22.4206 99.8405 22.8101 99.6093 23.5218C99.378 24.2335 99.7675 24.9979 100.479 25.2292L108.211 27.7415C108.245 27.7524 108.279 27.762 108.313 27.7701C106.078 29.5238 103.926 30.4137 101.902 30.6596C99.5432 30.9461 97.3812 30.3555 95.4951 29.274C91.7333 27.1169 89.048 22.9973 88.0117 19.8946Z" fill="#2F732F"/>
<path d="M98.1183 50.3379C98.0666 50.3383 98.0188 50.3213 97.9805 50.2924C97.9411 50.2649 97.9102 50.2247 97.8946 50.1754C96.9093 47.0562 96.6603 42.1449 98.4358 38.1886C99.326 36.2051 100.728 34.4565 102.804 33.3019C104.589 32.31 106.856 31.7646 109.699 31.8718C109.676 31.8996 109.653 31.9286 109.631 31.9588L104.852 38.5361C104.412 39.1416 104.546 39.9889 105.152 40.4288C105.757 40.8687 106.605 40.7345 107.044 40.129L111.823 33.5517C111.844 33.5231 111.863 33.494 111.882 33.4643C112.859 36.1312 113.04 38.4533 112.649 40.4541C112.192 42.7859 110.963 44.6595 109.351 46.1191C106.137 49.0302 101.389 50.3111 98.1183 50.3379Z" fill="#2F732F"/>
<path d="M129.995 50.2927C130.046 50.2932 130.094 50.2762 130.132 50.2472C130.172 50.2197 130.203 50.1795 130.218 50.1302C131.204 47.011 131.453 42.0997 129.677 38.1435C128.787 36.1599 127.385 34.4113 125.308 33.2567C123.524 32.2649 121.257 31.7194 118.413 31.8266C118.437 31.8544 118.46 31.8834 118.482 31.9136L123.261 38.491C123.701 39.0964 123.567 39.9438 122.961 40.3836C122.356 40.8235 121.508 40.6893 121.068 40.0839L116.29 33.5065C116.269 33.4779 116.249 33.4488 116.231 33.4192C115.254 36.086 115.073 38.4082 115.464 40.409C115.921 42.7407 117.15 44.6143 118.762 46.0739C121.976 48.9851 126.724 50.266 129.995 50.2927Z" fill="#2F732F"/>
<path d="M139.988 19.8946C140.005 19.8455 140.003 19.7948 139.988 19.7494C139.974 19.7035 139.945 19.6617 139.903 19.6316C137.241 17.7306 132.647 15.9762 128.336 16.4422C126.174 16.6759 124.078 17.4688 122.338 19.087C120.843 20.4772 119.624 22.4654 118.847 25.2026C118.881 25.1885 118.916 25.1757 118.951 25.1641L126.683 22.6518C127.395 22.4206 128.159 22.8101 128.391 23.5218C128.622 24.2335 128.232 24.9979 127.521 25.2292L119.789 27.7415C119.755 27.7524 119.721 27.762 119.687 27.7701C121.922 29.5238 124.074 30.4137 126.098 30.6596C128.457 30.9461 130.619 30.3555 132.505 29.274C136.267 27.1169 138.952 22.9973 139.988 19.8946Z" fill="#2F732F"/>
<path d="M114.134 0.944263C114.093 0.913517 114.044 0.89917 113.996 0.900064C113.948 0.89917 113.899 0.913517 113.858 0.944263C111.227 2.88859 108.139 6.71554 107.25 10.9598C106.804 13.0878 106.91 15.3265 107.912 17.4811C108.772 19.3322 110.286 21.1064 112.649 22.6909C112.647 22.6544 112.645 22.6174 112.645 22.5801V14.4501C112.645 13.7017 113.252 13.0951 114 13.0951C114.748 13.0951 115.355 13.7017 115.355 14.4501V22.5801C115.355 22.6155 115.354 22.6505 115.351 22.6852C117.709 21.1022 119.221 19.33 120.08 17.4811C121.081 15.3265 121.188 13.0878 120.742 10.9598C119.853 6.71554 116.765 2.88859 114.134 0.944263Z" fill="#2F732F"/>
<path d="M116.936 28.226C116.936 29.8474 115.621 31.1618 114 31.1618C112.379 31.1618 111.064 29.8474 111.064 28.226C111.064 26.6046 112.379 25.2901 114 25.2901C115.621 25.2901 116.936 26.6046 116.936 28.226Z" fill="#6D5E66"/>
</svg>
