<svg width="185" height="64" viewBox="0 0 185 64" fill="none" xmlns="http://www.w3.org/2000/svg">
<path d="M13.888 9C16.2773 9 18.112 9.256 19.392 9.768C20.672 10.28 21.7813 10.8347 22.72 11.432C23.232 11.7307 23.6373 11.9653 23.936 12.136C24.2773 12.264 24.5973 12.328 24.896 12.328C25.3227 12.328 25.6213 12.0933 25.792 11.624C26.0053 11.1547 26.176 10.4507 26.304 9.512H27.776C27.7333 10.3227 27.6693 11.2613 27.584 12.328C27.5413 13.3947 27.4987 14.824 27.456 16.616C27.456 18.3653 27.456 20.6907 27.456 23.592H25.984C25.856 21.416 25.3653 19.3253 24.512 17.32C23.7013 15.3147 22.528 13.672 20.992 12.392C19.4987 11.0693 17.5787 10.408 15.232 10.408C13.1413 10.408 11.392 11.0267 9.984 12.264C8.61867 13.5013 7.936 15.1653 7.936 17.256C7.936 19.048 8.384 20.5627 9.28 21.8C10.176 22.9947 11.4347 24.168 13.056 25.32C14.72 26.4293 16.6827 27.7093 18.944 29.16C21.0347 30.5253 22.912 31.8907 24.576 33.256C26.24 34.5787 27.5413 36.0507 28.48 37.672C29.4613 39.2933 29.952 41.2773 29.952 43.624C29.952 46.3973 29.2693 48.7013 27.904 50.536C26.5387 52.3707 24.704 53.736 22.4 54.632C20.096 55.528 17.5787 55.976 14.848 55.976C12.3307 55.976 10.3253 55.72 8.832 55.208C7.38133 54.696 6.12267 54.1627 5.056 53.608C4.11733 53.0107 3.392 52.712 2.88 52.712C2.45333 52.712 2.13333 52.9467 1.92 53.416C1.74933 53.8853 1.6 54.5893 1.472 55.528H0C0.0853333 54.5467 0.128 53.3947 0.128 52.072C0.170667 50.7493 0.192 49.0427 0.192 46.952C0.234667 44.8187 0.256 42.1307 0.256 38.888H1.728C1.89867 41.6187 2.368 44.1787 3.136 46.568C3.94667 48.9147 5.16267 50.8133 6.784 52.264C8.448 53.7147 10.6453 54.44 13.376 54.44C14.8693 54.44 16.2133 54.184 17.408 53.672C18.6453 53.1173 19.6267 52.2853 20.352 51.176C21.0773 50.024 21.44 48.5733 21.44 46.824C21.44 45.0747 21.0347 43.5387 20.224 42.216C19.4133 40.8933 18.2827 39.656 16.832 38.504C15.3813 37.352 13.6747 36.1787 11.712 34.984C9.70667 33.704 7.82933 32.4027 6.08 31.08C4.33067 29.7573 2.92267 28.264 1.856 26.6C0.832 24.8933 0.32 22.8453 0.32 20.456C0.32 17.8107 0.96 15.656 2.24 13.992C3.52 12.2853 5.184 11.0267 7.232 10.216C9.32267 9.40533 11.5413 9 13.888 9Z" fill="#5E4B55"/>
<path d="M46.7565 9.576L62.3085 49.704C62.9485 51.24 63.6312 52.3067 64.3565 52.904C65.1245 53.4587 65.8285 53.7573 66.4685 53.8V55.08C65.3592 54.9947 64.0152 54.952 62.4365 54.952C60.9005 54.9093 59.3218 54.888 57.7005 54.888C55.8232 54.888 54.0738 54.9093 52.4525 54.952C50.8312 54.952 49.5085 54.9947 48.4845 55.08V53.8C50.6605 53.7147 52.0472 53.352 52.6445 52.712C53.2418 52.0293 53.1138 50.6 52.2605 48.424L40.9965 18.024L42.1485 16.616L31.9085 43.176C31.0978 45.3093 30.6072 47.0587 30.4365 48.424C30.2658 49.7893 30.3725 50.856 30.7565 51.624C31.1405 52.392 31.7805 52.9467 32.6765 53.288C33.5725 53.5867 34.6818 53.7573 36.0045 53.8V55.08C34.6392 54.9947 33.3165 54.952 32.0365 54.952C30.7565 54.9093 29.4765 54.888 28.1965 54.888C27.2578 54.888 26.3618 54.9093 25.5085 54.952C24.6978 54.952 23.9725 54.9947 23.3325 55.08V53.8C24.2712 53.5867 25.1885 53.032 26.0845 52.136C27.0232 51.24 27.9192 49.6827 28.7725 47.464L43.4285 9.576C43.9405 9.61867 44.4952 9.64 45.0925 9.64C45.6898 9.64 46.2445 9.61867 46.7565 9.576ZM52.3245 36.648V37.928H33.2525L33.8925 36.648H52.3245Z" fill="#5E4B55"/>
<path d="M59.156 9.768C60.2227 9.81067 61.588 9.85333 63.252 9.896C64.916 9.93867 66.58 9.96 68.244 9.96C70.3347 9.96 72.3187 9.93867 74.196 9.896C76.0733 9.85333 77.396 9.832 78.164 9.832C83.1987 9.832 86.9533 10.7707 89.428 12.648C91.9453 14.5253 93.204 16.936 93.204 19.88C93.204 21.3733 92.7987 22.8667 91.988 24.36C91.22 25.8533 89.9613 27.1973 88.212 28.392C86.5053 29.5867 84.2653 30.4827 81.492 31.08V31.208C85.2467 31.5493 88.212 32.3173 90.388 33.512C92.6067 34.664 94.1853 36.0507 95.124 37.672C96.0627 39.2507 96.532 40.9147 96.532 42.664C96.532 45.2667 95.8493 47.5067 94.484 49.384C93.1613 51.2187 91.2413 52.6267 88.724 53.608C86.2067 54.5893 83.1773 55.08 79.636 55.08C78.6973 55.08 77.268 55.0587 75.348 55.016C73.428 54.9307 71.1027 54.888 68.372 54.888C66.6227 54.888 64.916 54.9093 63.252 54.952C61.588 54.952 60.2227 54.9947 59.156 55.08V53.8C60.564 53.7147 61.6093 53.544 62.292 53.288C63.0173 53.032 63.4867 52.52 63.7 51.752C63.956 50.984 64.084 49.832 64.084 48.296V16.552C64.084 14.9733 63.956 13.8213 63.7 13.096C63.4867 12.328 63.0173 11.816 62.292 11.56C61.6093 11.2613 60.564 11.0907 59.156 11.048V9.768ZM77.076 11.048C75.3267 11.048 74.1747 11.4107 73.62 12.136C73.108 12.8613 72.852 14.3333 72.852 16.552V48.296C72.852 49.7893 72.98 50.92 73.236 51.688C73.492 52.456 73.94 52.968 74.58 53.224C75.22 53.48 76.1587 53.608 77.396 53.608C80.8947 53.608 83.412 52.648 84.948 50.728C86.5267 48.7653 87.316 45.992 87.316 42.408C87.316 39.1227 86.4627 36.584 84.756 34.792C83.092 33 80.3187 32.104 76.436 32.104H70.612C70.612 32.104 70.612 31.9333 70.612 31.592C70.612 31.208 70.612 31.016 70.612 31.016H76.116C78.292 31.016 79.9773 30.5467 81.172 29.608C82.3667 28.6267 83.1773 27.3467 83.604 25.768C84.0307 24.1467 84.244 22.4187 84.244 20.584C84.244 17.4267 83.6893 15.0587 82.58 13.48C81.4707 11.8587 79.636 11.048 77.076 11.048Z" fill="#5E4B55"/>
<path d="M142.532 9C143.599 9.04267 144.964 9.08533 146.628 9.128C148.292 9.17066 149.956 9.192 151.62 9.192C153.711 9.192 155.695 9.17066 157.572 9.128C159.449 9.08533 160.772 9.064 161.54 9.064C165.38 9.064 168.537 9.53333 171.012 10.472C173.529 11.368 175.407 12.648 176.644 14.312C177.881 15.976 178.5 17.9387 178.5 20.2C178.5 21.608 178.223 23.0587 177.668 24.552C177.113 26.0027 176.153 27.3467 174.788 28.584C173.423 29.8213 171.545 30.8453 169.156 31.656C166.809 32.424 163.801 32.808 160.132 32.808H153.988V31.528H159.492C162.18 31.528 164.228 31.0587 165.636 30.12C167.087 29.1387 168.047 27.8587 168.516 26.28C169.028 24.6587 169.284 22.8667 169.284 20.904C169.284 17.5333 168.623 14.9307 167.3 13.096C165.977 11.2187 163.695 10.28 160.452 10.28C158.703 10.28 157.551 10.6427 156.996 11.368C156.484 12.0933 156.228 13.5653 156.228 15.784V47.528C156.228 49.064 156.356 50.216 156.612 50.984C156.868 51.752 157.337 52.264 158.02 52.52C158.745 52.776 159.791 52.9467 161.156 53.032V54.312C160.089 54.2267 158.724 54.184 157.06 54.184C155.396 54.1413 153.711 54.12 152.004 54.12C150.084 54.12 148.292 54.1413 146.628 54.184C144.964 54.184 143.599 54.2267 142.532 54.312V53.032C143.94 52.9467 144.985 52.776 145.668 52.52C146.393 52.264 146.863 51.752 147.076 50.984C147.332 50.216 147.46 49.064 147.46 47.528V15.784C147.46 14.2053 147.332 13.0533 147.076 12.328C146.863 11.56 146.393 11.048 145.668 10.792C144.985 10.4933 143.94 10.3227 142.532 10.28V9ZM153.988 31.72C155.993 31.8053 157.657 31.912 158.98 32.04C160.345 32.1253 161.497 32.2107 162.436 32.296C163.417 32.3813 164.292 32.488 165.06 32.616C168.601 32.9573 171.204 33.7893 172.868 35.112C174.575 36.392 175.705 38.3547 176.26 41L177.732 47.592C178.116 49.3413 178.521 50.6 178.948 51.368C179.417 52.0933 180.079 52.4347 180.932 52.392C181.529 52.392 182.041 52.2427 182.468 51.944C182.895 51.6027 183.321 51.1547 183.748 50.6L184.644 51.368C183.577 52.6907 182.447 53.672 181.252 54.312C180.057 54.9093 178.543 55.208 176.708 55.208C174.66 55.208 172.932 54.7387 171.524 53.8C170.116 52.8187 169.156 50.984 168.644 48.296L167.428 41.896C167.087 40.104 166.681 38.5253 166.212 37.16C165.785 35.7947 165.188 34.728 164.42 33.96C163.652 33.192 162.521 32.808 161.028 32.808H154.116L153.988 31.72Z" fill="#5E4B55"/>
<path d="M92.1772 28.3841C90.1754 28.2033 88.6749 26.4093 89.1021 24.426C90.0157 20.1848 91.8486 16.1992 94.468 12.758C95.6929 11.1488 98.0182 11.1492 99.4466 12.5771L110.367 23.4942C112.79 25.9171 110.879 30.0732 107.482 29.7664L92.1772 28.3841Z" fill="#387819"/>
<path d="M149.756 28.5426C151.759 28.3789 153.275 26.5979 152.864 24.611C151.986 20.3621 150.187 16.361 147.597 12.8975C146.385 11.2778 144.06 11.2583 142.62 12.6739L131.608 23.4971C129.165 25.8991 131.041 30.0714 134.44 29.7938L149.756 28.5426Z" fill="#387819"/>
<path d="M118.556 60.548C118.494 62.5767 116.809 64.1945 114.823 63.8799C110.577 63.2072 106.53 61.5928 102.974 59.1536C101.312 58.013 101.176 55.6688 102.504 54.1452L112.657 42.497C114.91 39.9119 119.13 41.5954 119.026 45.0376L118.556 60.548Z" fill="#387819"/>
<path d="M102.809 9.7572C101.483 8.23189 101.622 5.88782 103.286 4.74938C106.844 2.31485 110.893 0.705753 115.14 0.0386248C117.126 -0.273341 118.809 1.34661 118.868 3.37542L119.319 18.8864C119.419 22.3287 115.196 24.0067 112.946 21.4187L102.809 9.7572Z" fill="#387819"/>
<path d="M98.7896 49.9136C97.2925 51.2678 94.9701 51.1511 93.8262 49.4822C91.38 45.9133 89.7463 41.8403 89.0433 37.5584C88.7146 35.556 90.3018 33.8399 92.3101 33.7601L107.664 33.1504C111.072 33.0151 112.776 37.2624 110.235 39.5601L98.7896 49.9136Z" fill="#387819"/>
<path d="M123.229 60.5846C123.264 62.614 124.927 64.2546 126.917 63.9672C131.172 63.3526 135.24 61.7936 138.828 59.4032C140.505 58.2854 140.673 55.9432 139.365 54.4016L129.37 42.6158C127.151 40.0002 122.909 41.6259 122.967 45.0693L123.229 60.5846Z" fill="#387819"/>
<path d="M143.148 49.9561C144.639 51.3176 146.962 51.2123 148.114 49.549C150.577 45.9922 152.231 41.9273 152.954 37.6488C153.293 35.6481 151.714 33.9242 149.706 33.8346L134.355 33.1495C130.948 32.9974 129.224 37.2363 131.753 39.5465L143.148 49.9561Z" fill="#387819"/>
<path d="M138.986 9.77098C140.309 8.24277 140.165 5.89902 138.499 4.76422C134.935 2.33749 130.883 0.737252 126.634 0.079422C124.648 -0.228196 122.968 1.39543 122.913 3.42437L122.496 18.9363C122.404 22.3789 126.63 24.0476 128.874 21.4546L138.986 9.77098Z" fill="#387819"/>
<path d="M126.405 31.47C126.405 34.5146 123.961 36.9826 120.946 36.9826C117.931 36.9826 115.487 34.5146 115.487 31.47C115.487 28.4255 117.931 25.9574 120.946 25.9574C123.961 25.9574 126.405 28.4255 126.405 31.47Z" fill="#5E4B55"/>
</svg>
